<?xml version="1.0" encoding="UTF-8" standalone="no"?>
<svg width="46px" height="66px" viewBox="0 0 46 66" version="1.1" xmlns="http://www.w3.org/2000/svg" xmlns:xlink="http://www.w3.org/1999/xlink">
    <!-- Generator: Sketch 48.2 (47327) - http://www.bohemiancoding.com/sketch -->
    <title>Shape</title>
    <desc>Created with Sketch.</desc>
    <defs></defs>
    <g id="ACCOUNT-VERIFICATION" stroke="none" stroke-width="1" fill="none" fill-rule="evenodd" transform="translate(-37.000000, -205.000000)">
        <g id="ADDRESS" transform="translate(37.000000, 205.000000)" fill="#F7A800">
            <path d="M34.8608295,38.2803379 L10.7124424,38.2803379 L10.7124424,36.1015361 C10.7124424,31.2597542 18.7619048,28.5967742 22.7866359,28.5967742 C26.8113671,28.5967742 34.8608295,31.2597542 34.8608295,36.1015361 L34.8608295,38.2803379 Z M22.9833333,26.0813172 C19.1685237,26.0813172 16.0724462,22.9852398 16.0724462,19.1704301 C16.0724462,15.3556204 19.1685237,12.259543 22.9833333,12.259543 C26.798143,12.259543 29.8942204,15.3556204 29.8942204,19.1704301 C29.8942204,22.9852398 26.798143,26.0813172 22.9833333,26.0813172 L22.9833333,26.0813172 Z M22.9833333,0 C10.2768333,0 0,10.2768333 0,22.9833333 C0,40.2208333 22.9833333,65.6666667 22.9833333,65.6666667 C22.9833333,65.6666667 45.9666667,40.2208333 45.9666667,22.9833333 C45.9666667,10.2768333 35.6898333,0 22.9833333,0 L22.9833333,0 Z" id="Shape"></path>
        </g>
    </g>
</svg>