<svg xmlns="http://www.w3.org/2000/svg" viewBox="0 0 595.28 595.28"><defs><style>.cls-1{fill:#005da1;}.cls-2{fill:#f7a800;}.cls-3{fill:#fff;}</style></defs><title>LWF_Lgs-Logo-payoff-Blue_back</title><g id="Layer_2" data-name="Layer 2"><g id="Layer_1-2" data-name="Layer 1"><rect class="cls-1" width="595.28" height="595.28"/><path class="cls-2" d="M306.86,372.8,293,315.68a1.12,1.12,0,0,0-2.15,0L277,372.8H264.8s25.31,31,27.17,31,27.17-31,27.17-31Z"/><g id="_Group_" data-name="&lt;Group&gt;"><path class="cls-3" d="M405.79,339.1H414V247.82H402.83v-26h91.89a8.1,8.1,0,0,1,8.1,8.1v34.2H472.75V251.88H449.89V283h22.34V304.6a6.43,6.43,0,0,1-6.43,6.43h-15.9V339.1h-.09v16.72a9.34,9.34,0,0,1-9.34,9.34H405.79Z"/></g><g id="_Group_2" data-name="&lt;Group&gt;"><path class="cls-3" d="M95.43,339h8.34V247.77H92.45v-26h39.2a8,8,0,0,1,8,8v20.07h0v81a6.23,6.23,0,0,0,6.23,6.23h24.65V316h30.07v39.78a9.34,9.34,0,0,1-9.34,9.34H95.43Z"/></g><path class="cls-3" d="M262.78,280.8l-7.61,30.63c-.8,3.41-1.2,7.22-1.81,10.22l-.6,4.81H252l-.4-4.81a65.62,65.62,0,0,0-1.4-10.22l-14.44-63.56-3.82-18.15a10,10,0,0,0-9.76-7.92H188.87l3.61,26h7.8v.52L228,359.09c1.86,3.56,5.05,6.07,8.72,6.07H270l18.34-67.68Z"/><path class="cls-3" d="M321.15,280.8l7.61,30.63c.8,3.41,1.2,7.22,1.81,10.22l.6,4.81h.8l.4-4.81a65.62,65.62,0,0,1,1.4-10.22l14.44-63.56L352,229.72a10,10,0,0,1,9.76-7.92h33.27l-3.61,26h-7.8v.52L355.89,359.09c-1.86,3.56-5.05,6.07-8.72,6.07H313.92l-18.34-67.68Z"/><path class="cls-2" d="M291.86,219.52l-29,16.77v33.54l29,19,29-19V236.29Zm15.55,19.57-15.55,9-15.55-9,15.55-9ZM272,247.19,287.27,256v19.6L272,264.53Zm24.46,28.42V256l15.29-8.83v17.34Z"/><path class="cls-3" d="M90.17,434.49h2V422.32h-2V419.8h7.25v2.52H95.36v12h5v-2.64h2.69v5.16H90.17Z"/><path class="cls-3" d="M115.81,419.51a8.62,8.62,0,0,1,8.83,8.69,8.83,8.83,0,1,1-17.67,0A8.62,8.62,0,0,1,115.81,419.51Zm0,14.86c3.07,0,5.59-2.64,5.59-6.17a5.6,5.6,0,1,0-11.19,0C110.21,431.73,112.73,434.37,115.81,434.37Z"/><path class="cls-3" d="M137.74,419.51c2.06,0,6.65.72,6.65,3.41v2.3h-2.86V423.9c0-1.27-2.23-1.7-3.65-1.7a5.54,5.54,0,0,0-5.69,5.91c0,3.82,2.5,6.34,5.86,6.34,1,0,3.7-.34,3.7-1.68v-1.32h2.86v2.33c0,2.54-4.37,3.36-6.75,3.36a8.68,8.68,0,0,1-8.9-8.88A8.57,8.57,0,0,1,137.74,419.51Z"/><path class="cls-3" d="M148.37,434.49h1.56L155,419.8h3.58l5.11,14.69h1.56v2.35h-6.41v-2.35h1.68l-1.06-3.19h-5.38l-1.06,3.19h1.68v2.35h-6.38Zm10.42-5.64L157.18,424l-.26-1.06a3.3,3.3,0,0,1,0-.43h-.07l-.07.43c-.07.26-.12.6-.24,1.06l-1.63,4.82Z"/><path class="cls-3" d="M169.09,434.49h2V422.32h-2V419.8h7.25v2.52h-2.06v12h5v-2.64H182v5.16H169.09Z"/><path class="cls-3" d="M193.49,419.8h6.65v2.38h-2l2.21,9.72a9.29,9.29,0,0,1,.14,1l0,.48h.1l.07-.48c.07-.29.1-.65.19-1l3.19-12.1h2.52l3.19,12.1c.1.36.14.72.22,1a3.55,3.55,0,0,1,0,.48h.1l0-.48a9.29,9.29,0,0,1,.14-1l2.21-9.72h-2V419.8h6.65v2.38h-1.56L212,436.84h-3.53l-2.86-10.75c-.1-.36-.12-.72-.19-1l-.07-.53h-.07a3.86,3.86,0,0,1,0,.53,7.16,7.16,0,0,1-.22,1l-2.86,10.75h-3.53l-3.62-14.67h-1.56Z"/><path class="cls-3" d="M229.69,419.51a8.62,8.62,0,0,1,8.83,8.69,8.83,8.83,0,1,1-17.67,0A8.62,8.62,0,0,1,229.69,419.51Zm0,14.86c3.07,0,5.59-2.64,5.59-6.17a5.6,5.6,0,1,0-11.19,0C224.09,431.73,226.61,434.37,229.69,434.37Z"/><path class="cls-3" d="M243,434.49h2V422.18h-2V419.8h7.51a11.16,11.16,0,0,1,3.24.36,4.45,4.45,0,0,1,3.14,4.56,4.65,4.65,0,0,1-3.22,4.73v0l.29.22a2.76,2.76,0,0,1,.55.67l2,3.55c.26.46.58.55,1.15.55h.55v2.35h-2c-1.39,0-1.85-.29-2.38-1.27l-2.42-4.39c-.36-.65-.67-.86-1.66-.86h-1.56v4.18h2v2.35H243Zm8-6.7a2.54,2.54,0,0,0,2.74-2.81,2.29,2.29,0,0,0-1.34-2.35,4.64,4.64,0,0,0-1.92-.31h-2.3v5.47Z"/><path class="cls-3" d="M262.52,434.49h2V422.32h-2V419.8h7.25v2.52H267.7v12h5v-2.64h2.69v5.16H262.52Z"/><path class="cls-3" d="M279.51,434.49h2V422.18h-2V419.8h7.37a11.14,11.14,0,0,1,3.55.41c3.34,1,5.52,3.94,5.52,8.11s-2,6.94-5.28,8a10.94,10.94,0,0,1-3.77.5h-7.39Zm7.25-.17a6.8,6.8,0,0,0,2.79-.43c1.94-.79,3.17-2.76,3.17-5.57s-1.27-4.85-3.29-5.62a6.43,6.43,0,0,0-2.67-.38h-2.06v12Z"/><path class="cls-3" d="M308.81,434.49h2V422.18h-2V419.8H321v4.42h-2.69v-1.75H314v4.9h5.54v2.52H314v4.61h2.26v2.35h-7.44Z"/><path class="cls-3" d="M333.85,419.51a8.62,8.62,0,0,1,8.83,8.69,8.83,8.83,0,1,1-17.67,0A8.62,8.62,0,0,1,333.85,419.51Zm0,14.86c3.07,0,5.59-2.64,5.59-6.17a5.6,5.6,0,1,0-11.19,0C328.25,431.73,330.77,434.37,333.85,434.37Z"/><path class="cls-3" d="M347.17,434.49h2V422.18h-2V419.8h7.51a11.16,11.16,0,0,1,3.24.36,4.45,4.45,0,0,1,3.14,4.56,4.65,4.65,0,0,1-3.22,4.73v0l.29.22a2.76,2.76,0,0,1,.55.67l2,3.55c.26.46.58.55,1.15.55h.55v2.35h-2c-1.39,0-1.85-.29-2.38-1.27l-2.42-4.39c-.36-.65-.67-.86-1.66-.86h-1.56v4.18h2v2.35h-7.15Zm8-6.7a2.54,2.54,0,0,0,2.74-2.81,2.29,2.29,0,0,0-1.34-2.35,4.64,4.64,0,0,0-1.92-.31h-2.3v5.47Z"/><path class="cls-3" d="M365.45,419.8h6.65v2.38h-2l2.21,9.72a9.29,9.29,0,0,1,.14,1l0,.48h.1l.07-.48c.07-.29.1-.65.19-1l3.19-12.1h2.52l3.19,12.1c.1.36.14.72.22,1a3.55,3.55,0,0,1,0,.48h.1l0-.48a9.29,9.29,0,0,1,.14-1l2.21-9.72h-2V419.8h6.65v2.38h-1.56L384,436.84h-3.53l-2.86-10.75c-.1-.36-.12-.72-.19-1l-.07-.53h-.07a3.86,3.86,0,0,1,0,.53,7.16,7.16,0,0,1-.22,1l-2.86,10.75h-3.53L367,422.18h-1.56Z"/><path class="cls-3" d="M391,434.49h1.56l5.11-14.69h3.58l5.11,14.69H408v2.35h-6.41v-2.35h1.68l-1.06-3.19H396.8l-1.06,3.19h1.68v2.35H391Zm10.42-5.64L399.85,424l-.26-1.06a3.3,3.3,0,0,1,0-.43h-.07l-.07.43c-.07.26-.12.6-.24,1.06l-1.63,4.82Z"/><path class="cls-3" d="M411.72,434.49h2V422.18h-2V419.8h7.51a11.16,11.16,0,0,1,3.24.36,4.45,4.45,0,0,1,3.14,4.56,4.65,4.65,0,0,1-3.22,4.73v0l.29.22a2.76,2.76,0,0,1,.55.67l2,3.55c.26.46.58.55,1.15.55h.55v2.35h-2c-1.39,0-1.85-.29-2.38-1.27l-2.42-4.39c-.36-.65-.67-.86-1.66-.86h-1.56v4.18h2v2.35h-7.15Zm8-6.7a2.54,2.54,0,0,0,2.74-2.81,2.29,2.29,0,0,0-1.34-2.35,4.64,4.64,0,0,0-1.92-.31h-2.3v5.47Z"/><path class="cls-3" d="M431.21,434.49h2V422.18h-2V419.8h7.37a11.14,11.14,0,0,1,3.55.41c3.34,1,5.52,3.94,5.52,8.11s-2,6.94-5.28,8a10.94,10.94,0,0,1-3.77.5h-7.39Zm7.25-.17a6.8,6.8,0,0,0,2.79-.43c1.94-.79,3.17-2.76,3.17-5.57s-1.27-4.85-3.29-5.62a6.43,6.43,0,0,0-2.67-.38H436.4v12Z"/><path class="cls-3" d="M452.24,434.49h2V422.18h-2V419.8h12.65v4.39H462.2v-1.87h-4.78V427H463v2.52h-5.62v4.8h5.14V432.4h2.69v4.44h-13Z"/><path class="cls-3" d="M469.88,434.49h2V422.18h-2V419.8h7.51a11.16,11.16,0,0,1,3.24.36,4.45,4.45,0,0,1,3.14,4.56,4.65,4.65,0,0,1-3.22,4.73v0l.29.22a2.76,2.76,0,0,1,.55.67l2,3.55c.26.46.58.55,1.15.55h.55v2.35h-2c-1.39,0-1.85-.29-2.38-1.27l-2.42-4.39c-.36-.65-.67-.86-1.66-.86h-1.56v4.18h2v2.35h-7.15Zm8-6.7a2.54,2.54,0,0,0,2.74-2.81,2.29,2.29,0,0,0-1.34-2.35,4.64,4.64,0,0,0-1.92-.31h-2.3v5.47Z"/><path class="cls-3" d="M492.05,431.35v1.27c0,1.08,1.39,1.75,3,1.75s3-.74,3-2.11c0-1.7-1.94-2.28-3.91-3-2.28-.89-4.51-1.87-4.51-4.94,0-3.43,2.76-4.75,5.71-4.75,2.69,0,5.4,1,5.4,3v2.23h-2.86v-1.15c0-.86-1.27-1.32-2.54-1.32s-2.54.58-2.54,1.87c0,1.58,1.61,2.09,3.36,2.78,2.57.89,5.09,1.94,5.09,5.11,0,3.48-2.93,5.09-6.14,5.09-2.83,0-5.86-1.27-5.86-3.84v-1.94Z"/></g></g></svg>
