<?xml version="1.0" encoding="UTF-8" standalone="no"?>
<svg width="25px" height="25px" viewBox="0 0 25 25" version="1.1" xmlns="http://www.w3.org/2000/svg" xmlns:xlink="http://www.w3.org/1999/xlink">
    <!-- Generator: Sketch 48.2 (47327) - http://www.bohemiancoding.com/sketch -->
    <title>IconPick up</title>
    <desc>Created with Sketch.</desc>
    <defs></defs>
    <g id="Delivery-address-Copy" stroke="none" stroke-width="1" fill="none" fill-rule="evenodd" transform="translate(-8.000000, -8.000000)">
        <g id="Dropoff" transform="translate(6.000000, 6.000000)" fill="#f7a800">
            <path d="M14.875,23.3333333 L7,15.6333333 L12.0113636,15.6333333 L12.0113636,12.8333333 L17.7400682,12.8333333 L17.7400682,15.6333333 L22.75,15.6333333 L14.875,23.3333333 Z M6.55022512,3.53344673 L22.6679721,3.5 L24.5,6.41666667 L4.66666667,6.41666667 L6.55022512,3.53344673 Z M22.75,2.33333333 L6.41666667,2.33333333 C5.78238889,2.33333333 5.21616667,2.62325 4.84186111,3.0765 L2.95536111,5.36588889 C2.56744444,5.83547222 2.33333333,6.43844444 2.33333333,7.09722222 L2.33333333,24.10975 C2.33333333,25.6137778 3.55152778,26.8333333 5.05691667,26.8333333 L24.1111111,26.8333333 C25.6151389,26.8333333 26.8333333,25.6137778 26.8333333,24.10975 L26.8333333,7.09722222 C26.8333333,6.43844444 26.5992222,5.83547222 26.2113056,5.36588889 L24.3261667,3.0765 C23.9518611,2.62325 23.3829167,2.33333333 22.75,2.33333333" id="Send"></path>
        </g>
    </g>
</svg>
