<?xml version="1.0" encoding="UTF-8" standalone="no"?>
<svg width="60px" height="45px" viewBox="0 0 60 45" version="1.1" xmlns="http://www.w3.org/2000/svg" xmlns:xlink="http://www.w3.org/1999/xlink">
    <!-- Generator: Sketch 48.2 (47327) - http://www.bohemiancoding.com/sketch -->
    <title>Shape</title>
    <desc>Created with Sketch.</desc>
    <defs></defs>
    <g id="ACCOUNT-VERIFICATION" stroke="none" stroke-width="1" fill="none" fill-rule="evenodd" transform="translate(-30.000000, -118.000000)">
        <g id="ID" transform="translate(30.000000, 118.000000)" fill="#F7A800">
            <path d="M5,0 L55,0 C57.625,0 60,2.375 60,5 L60,40 C60,42.625 57.625,45 55,45 L5,45 C2.375,45 0,42.625 0,40 L0,5 C0,2.375 2.375,0 5,0 L5,0 Z M35,7.5 L35,10 L55,10 L55,7.5 L35,7.5 L35,7.5 Z M35,12.5 L35,15 L53.75,15 L55,15 L55,12.5 L35,12.5 L35,12.5 Z M35,17.5 L35,20 L52.5,20 L52.5,17.5 L35,17.5 L35,17.5 Z M20,27.275 C15,27.275 5,30 5,35 L5,37.5 L35,37.5 L35,35 C35,30 25,27.275 20,27.275 L20,27.275 Z M20,7.5 C15.8578644,7.5 12.5,10.8578644 12.5,15 C12.5,19.1421356 15.8578644,22.5 20,22.5 C24.1421356,22.5 27.5,19.1421356 27.5,15 C27.5,10.8578644 24.1421356,7.5 20,7.5 L20,7.5 Z" id="Shape"></path>
        </g>
    </g>
</svg>