<svg xmlns="http://www.w3.org/2000/svg" viewBox="0 0 595.28 595.28"><defs><style>.cls-1{fill:#fff;}.cls-2{fill:#f7a800;}.cls-3{fill:#005da1;}</style></defs><title>LWF_Lgs-Logo_1</title><g id="Layer_2" data-name="Layer 2"><g id="Layer_1-2" data-name="Layer 1"><rect class="cls-1" width="595.28" height="595.28"/><path class="cls-2" d="M306.86,371.8,293,314.68a1.12,1.12,0,0,0-2.15,0L277,371.8H264.8s25.31,31,27.17,31,27.17-31,27.17-31Z"/><g id="_Group_" data-name="&lt;Group&gt;"><path class="cls-3" d="M405.79,338.1H414V246.82H402.83v-26h91.89a8.1,8.1,0,0,1,8.1,8.1v34.2H472.75V250.88H449.89V282h22.34V303.6a6.43,6.43,0,0,1-6.43,6.43h-15.9V338.1h-.09v16.72a9.34,9.34,0,0,1-9.34,9.34H405.79Z"/></g><g id="_Group_2" data-name="&lt;Group&gt;"><path class="cls-3" d="M95.43,338h8.34V246.77H92.45v-26h39.2a8,8,0,0,1,8,8v20.07h0v81a6.23,6.23,0,0,0,6.23,6.23h24.65V315h30.07v39.78a9.34,9.34,0,0,1-9.34,9.34H95.43Z"/></g><path class="cls-3" d="M262.78,279.8l-7.61,30.63c-.8,3.41-1.2,7.22-1.81,10.22l-.6,4.81H252l-.4-4.81a65.62,65.62,0,0,0-1.4-10.22l-14.44-63.56-3.82-18.15a10,10,0,0,0-9.76-7.92H188.87l3.61,26h7.8v.52L228,358.09c1.86,3.56,5.05,6.07,8.72,6.07H270l18.34-67.68Z"/><path class="cls-3" d="M321.15,279.8l7.61,30.63c.8,3.41,1.2,7.22,1.81,10.22l.6,4.81h.8l.4-4.81a65.62,65.62,0,0,1,1.4-10.22l14.44-63.56L352,228.72a10,10,0,0,1,9.76-7.92h33.27l-3.61,26h-7.8v.52L355.89,358.09c-1.86,3.56-5.05,6.07-8.72,6.07H313.92l-18.34-67.68Z"/><path class="cls-2" d="M291.86,218.52l-29,16.77v33.54l29,19,29-19V235.29Zm15.55,19.57-15.55,9-15.55-9,15.55-9ZM272,246.19,287.27,255v19.6L272,263.53Zm24.46,28.42V255l15.29-8.83v17.34Z"/></g></g></svg>
