<?xml version="1.0" encoding="UTF-8" standalone="no"?>
<svg width="131px" height="84px" viewBox="0 0 131 84" version="1.1" xmlns="http://www.w3.org/2000/svg" xmlns:xlink="http://www.w3.org/1999/xlink">
    <!-- Generator: Sketch 48.2 (47327) - http://www.bohemiancoding.com/sketch -->
    <title>Group</title>
    <desc>Created with Sketch.</desc>
    <defs></defs>
    <g id="ACCOUNT-VERIFICATION---ADDRESS" stroke="none" stroke-width="1" fill="none" fill-rule="evenodd" transform="translate(-114.000000, -310.000000)">
        <g id="Group" transform="translate(117.000000, 313.000000)">
            <path d="M114.583333,78 L10.4166667,78 C4.671875,78 0,73.3356 0,67.6 L0,10.4 C0,4.6696 4.671875,0 10.4166667,0 L114.583333,0 C120.328125,0 125,4.6696 125,10.4 L125,67.6 C125,73.3356 120.328125,78 114.583333,78 L114.583333,78 Z" id="Fill-238" stroke="#D6D8DA" stroke-width="5"></path>
            <polygon id="Fill-239" fill="#D6D8DA" points="62 41 21 41 21 31 62 31"></polygon>
            <polygon id="Fill-240" fill="#D6D8DA" points="62 57 21 57 21 47 62 47"></polygon>
            <polygon id="Fill-241" fill="#D6D8DA" points="84 36 105 36 105 15 84 15"></polygon>
        </g>
    </g>
</svg>