<?xml version="1.0" encoding="UTF-8" standalone="no"?>
<svg width="23px" height="20px" viewBox="0 0 23 20" version="1.1" xmlns="http://www.w3.org/2000/svg" xmlns:xlink="http://www.w3.org/1999/xlink">
    <!-- Generator: Sketch 48.2 (47327) - http://www.bohemiancoding.com/sketch -->
    <title>CAMERA Copy 2</title>
    <desc>Created with Sketch.</desc>
    <defs></defs>
    <g id="ACCOUNT-VERIFICATION---ADDRESS" stroke="none" stroke-width="1" fill="none" fill-rule="evenodd" transform="translate(-169.000000, -225.000000)">
        <g id="CAMERA" transform="translate(169.000000, 225.000000)" fill="#9B9DA0">
            <g id="Group-2-Copy-2">
                <path d="M11,15.589207 C8.91242718,15.589207 7.21359223,13.9113797 7.21359223,11.8496217 C7.21359223,9.7878636 8.91242718,8.1100363 11,8.1100363 C13.0875728,8.1100363 14.7864078,9.7878636 14.7864078,11.8496217 C14.7864078,13.9113797 13.0875728,15.589207 11,15.589207 M11,6.57584743 C8.05563107,6.57584743 5.66019417,8.94166255 5.66019417,11.8496217 C5.66019417,14.7575808 8.05563107,17.1233959 11,17.1233959 C13.9443689,17.1233959 16.3398058,14.7575808 16.3398058,11.8496217 C16.3398058,8.94166255 13.9443689,6.57584743 11,6.57584743" id="Fill-461"></path>
                <path d="M2.27041574,18.455157 L2.27041574,5.81484105 L7.49415707,5.81484105 L9.79790187,2.36748214 L13.172888,2.36748214 L15.4766328,5.81484105 L20.7003741,5.81484105 L20.701526,18.455157 L2.27041574,18.455157 Z M20.0291262,4.01886599 L16.3286408,4.01886599 L14.8270874,1.77298396 C14.4298058,1.17742037 13.765534,0.822639191 13.05,0.822639191 L9.92087379,0.822639191 C9.20533981,0.822639191 8.54106796,1.17742037 8.14378641,1.77298396 L6.64223301,4.01886599 L2.94174757,4.01886599 C1.76378641,4.01886599 0.805825243,4.97453781 0.805825243,6.14968386 L0.805825243,17.8691821 C0.805825243,19.0443282 1.76378641,20 2.94174757,20 L20.0291262,20 C21.2070874,20 22.1650485,19.0443282 22.1650485,17.8691821 L22.1650485,6.14968386 C22.1650485,4.97453781 21.2070874,4.01886599 20.0291262,4.01886599 L20.0291262,4.01886599 Z" id="Fill-462"></path>
            </g>
        </g>
    </g>
</svg>