<svg xmlns="http://www.w3.org/2000/svg" viewBox="0 0 54.91 60"><defs><style>.cls-1{fill:#fff;}</style></defs><title>ICON-ISTDEL_1-WHITE</title><g id="Layer_2" data-name="Layer 2"><g id="Capa_1" data-name="Capa 1"><path class="cls-1" d="M25.41,34.08a4.22,4.22,0,0,0,.47,2.57l-8.39,9.47a1.45,1.45,0,0,0-.37,1.07,1.34,1.34,0,0,0,.47.94,1.47,1.47,0,0,0,1,.39A1.44,1.44,0,0,0,19.6,48L28,38.53a5.28,5.28,0,0,0,1,.29,3.81,3.81,0,0,0,.58,0,4.18,4.18,0,0,0,4.14-3.62,4,4,0,0,0-.8-3.1,4.17,4.17,0,0,0-7.49,1.95Zm5,1.64a1.31,1.31,0,0,1-1,.25h0a1.29,1.29,0,0,1-.89-.52,1.22,1.22,0,0,1-.27-1,1.39,1.39,0,0,1,1.33-1.17h.17a1.42,1.42,0,0,1,.9.53,1.32,1.32,0,0,1,.25,1A1.28,1.28,0,0,1,30.38,35.71Z"/><path class="cls-1" d="M29.55,49.79a14.79,14.79,0,0,1-6.21-1.32,1.44,1.44,0,0,0-1.87.72,1.4,1.4,0,0,0,0,1.12,1.38,1.38,0,0,0,.76.78,17.6,17.6,0,0,0,7.36,1.56,18,18,0,0,0,0-36,1.45,1.45,0,0,0,0,2.9,15.14,15.14,0,1,1,0,30.29Z"/><path class="cls-1" d="M29.55,9.28a25.17,25.17,0,0,0-17.78,7.31H1.45a1.43,1.43,0,1,0,0,2.87H21.28a1.43,1.43,0,1,0,0-2.87h-5.1a22.23,22.23,0,0,1,13.38-4.46A22.51,22.51,0,1,1,7.06,34.63a22.17,22.17,0,0,1,.4-4.2,1.4,1.4,0,0,0-1.13-1.66,1.37,1.37,0,0,0-1,.19,1.47,1.47,0,0,0-.63.94,26.21,26.21,0,0,0-.44,4.73A25.35,25.35,0,1,0,29.55,9.28Z"/><path class="cls-1" d="M45.3,12.5l4.17,3.64a1.33,1.33,0,0,0,.62.28,1.28,1.28,0,0,0,.33,0A1.48,1.48,0,0,0,51.49,16a1.51,1.51,0,0,0,.33-1.11,1.34,1.34,0,0,0-.5-.9l-4.15-3.61a1.43,1.43,0,0,0-2,.14,1.48,1.48,0,0,0-.32,1.09A1.35,1.35,0,0,0,45.3,12.5Z"/><path class="cls-1" d="M24.51,8.38H34.61a3.26,3.26,0,0,0,3.27-3.25V3.26A3.26,3.26,0,0,0,34.61,0H24.51a3.27,3.27,0,0,0-3.28,3.26V5.13A3.27,3.27,0,0,0,24.51,8.38Zm-.42-3.25V3.26a.42.42,0,0,1,.42-.4H34.61a.42.42,0,0,1,.42.4V5.13a.41.41,0,0,1-.42.38H24.51A.41.41,0,0,1,24.09,5.13Z"/><path class="cls-1" d="M24.3,26.33a1.42,1.42,0,0,0-1.43-1.45H9.3a20.94,20.94,0,0,1,1.15-2.14,1.31,1.31,0,0,0,.23-1,1.43,1.43,0,0,0-1.8-1.13,1.33,1.33,0,0,0-.81.62,24.72,24.72,0,0,0-1.89,3.66H4a1.43,1.43,0,1,0,0,2.87H22.87A1.43,1.43,0,0,0,24.3,26.33Z"/></g></g></svg>