<svg xmlns="http://www.w3.org/2000/svg" viewBox="0 0 42 42.37"><defs><style>.cls-1{fill:none;stroke:#005da1;stroke-linejoin:round;stroke-width:2px;}.cls-2{fill:#005da1;}</style></defs><title>ICON BOX M</title><g id="Layer_2" data-name="Layer 2"><g id="Capa_1" data-name="Capa 1"><rect class="cls-1" x="1" y="11.72" width="40" height="29.65"/><polygon class="cls-1" points="41 11.72 1 11.72 6.62 1.04 35.38 1.04 41 11.72"/><polygon class="cls-1" points="27.26 11.72 14.74 11.72 14.74 20.82 17.87 19.42 21 20.82 24.13 19.42 27.26 20.82 27.26 11.72"/><polygon class="cls-1" points="27.26 11.72 14.74 11.72 17.55 1 24.45 1 27.26 11.72"/><path class="cls-2" d="M18.39,37.92V30.44a.1.1,0,0,1,.11-.11h.84a.13.13,0,0,1,.13.08L21,33.48a0,0,0,0,0,0,0,0,0,0,0,0,0,0l1.51-3.07a.13.13,0,0,1,.13-.08h.84a.1.1,0,0,1,.11.11v7.48a.1.1,0,0,1-.11.11h-.84a.1.1,0,0,1-.11-.11V32.68s0,0,0,0l0,0L21.33,35a.13.13,0,0,1-.13.08h-.37a.13.13,0,0,1-.13-.08L19.5,32.66l0,0s0,0,0,0v5.24a.1.1,0,0,1-.11.11H18.5A.1.1,0,0,1,18.39,37.92Z"/></g></g></svg>