<svg xmlns="http://www.w3.org/2000/svg" viewBox="0 0 25.99 26"><defs><style>.cls-1{fill:#005da1;}</style></defs><title>LWF_Ritiro2</title><g id="Layer_2" data-name="Layer 2"><g id="Capa_1" data-name="Capa 1"><g id="order_picking" data-name="order picking"><path class="cls-1" d="M18.24,5.93a.4.4,0,0,0-.37-.24H15.6V.41A.41.41,0,0,0,15.2,0H10.8a.41.41,0,0,0-.4.41V5.69H8.12a.42.42,0,0,0-.37.24.42.42,0,0,0,.07.43l4.87,5.7a.42.42,0,0,0,.62,0l4.87-5.7A.36.36,0,0,0,18.24,5.93ZM13,11.15,9,6.5H10.8a.41.41,0,0,0,.41-.41V.81h3.58V6.09a.41.41,0,0,0,.41.41H17Z"/><path class="cls-1" d="M25.89,14.27,23,11h0a.33.33,0,0,0-.15-.1l0,0L17.25,9.31l-.59.68,4.54,1.3L13,13.62,4.8,11.29,9.33,10l-.58-.68L3.2,10.89l0,0A.29.29,0,0,0,3,11H3L.1,14.27a.39.39,0,0,0-.08.36.36.36,0,0,0,.26.28l2.63.91v6.11a.41.41,0,0,0,.26.38L12.86,26,13,26l.14,0,9.69-3.66a.41.41,0,0,0,.26-.38V15.83l2.63-.91a.36.36,0,0,0,.25-.28A.37.37,0,0,0,25.89,14.27Zm-24.78.08,2.34-2.6,8.86,2.52L9.95,17.39ZM12.59,25,3.72,21.66V16.11L10,18.26a.37.37,0,0,0,.13,0,.44.44,0,0,0,.33-.15l2.17-2.88Zm9.7-3.35L13.4,25V15.24l2.18,2.88a.45.45,0,0,0,.33.15.27.27,0,0,0,.12,0l6.25-2.16ZM16,17.39l-2.37-3.12,8.88-2.52,2.32,2.6Z"/></g></g></g></svg>