<?xml version="1.0" encoding="UTF-8" standalone="no"?>
<svg width="82px" height="62px" viewBox="0 0 82 62" version="1.1" xmlns="http://www.w3.org/2000/svg" xmlns:xlink="http://www.w3.org/1999/xlink">
    <!-- Generator: Sketch 48.2 (47327) - http://www.bohemiancoding.com/sketch -->
    <title>Shape Copy</title>
    <desc>Created with Sketch.</desc>
    <defs></defs>
    <g id="ACCOUNT-VERIFICATION---ID" stroke="none" stroke-width="1" fill="none" fill-rule="evenodd" transform="translate(-139.000000, -415.000000)">
        <path d="M145.75101,415 L213.261113,415 C216.805394,415 220.012123,418.220612 220.012123,421.780235 L220.012123,469.241883 C220.012123,472.801507 216.805394,476.022119 213.261113,476.022119 L145.75101,476.022119 C142.20673,476.022119 139,472.801507 139,469.241883 L139,421.780235 C139,418.220612 142.20673,415 145.75101,415 L145.75101,415 Z M150.882554,425.170353 L150.882554,428.560471 L212.393126,428.560471 L212.393126,425.170353 L150.882554,425.170353 L150.882554,425.170353 Z M150.882554,431.950589 L150.882554,435.340706 L208.548715,435.340706 L212.393126,435.340706 L212.393126,431.950589 L150.882554,431.950589 L150.882554,431.950589 Z M150.882554,460.718159 L150.882554,464.108277 L208.548715,464.108277 L212.393126,464.108277 L212.393126,460.718159 L150.882554,460.718159 L150.882554,460.718159 Z M150.882554,438.730824 L150.882554,442.120942 L204.704305,442.120942 L204.704305,438.730824 L150.882554,438.730824 L150.882554,438.730824 Z" id="Shape-Copy" fill="#D6D8DA"></path>
    </g>
</svg>