<?xml version="1.0" encoding="UTF-8" standalone="no"?>
<svg width="82px" height="62px" viewBox="0 0 82 62" version="1.1" xmlns="http://www.w3.org/2000/svg" xmlns:xlink="http://www.w3.org/1999/xlink">
    <!-- Generator: Sketch 48.2 (47327) - http://www.bohemiancoding.com/sketch -->
    <title>Shape</title>
    <desc>Created with Sketch.</desc>
    <defs></defs>
    <g id="ACCOUNT-VERIFICATION---ID" stroke="none" stroke-width="1" fill="none" fill-rule="evenodd" transform="translate(-139.000000, -251.000000)">
        <path d="M145.75101,251 L213.261113,251 C216.805394,251 220.012123,254.220612 220.012123,257.780235 L220.012123,305.241883 C220.012123,308.801507 216.805394,312.022119 213.261113,312.022119 L145.75101,312.022119 C142.20673,312.022119 139,308.801507 139,305.241883 L139,257.780235 C139,254.220612 142.20673,251 145.75101,251 L145.75101,251 Z M186.257072,261.170353 L186.257072,264.560471 L213.261113,264.560471 L213.261113,261.170353 L186.257072,261.170353 L186.257072,261.170353 Z M186.257072,267.950589 L186.257072,271.340706 L211.573361,271.340706 L213.261113,271.340706 L213.261113,267.950589 L186.257072,267.950589 L186.257072,267.950589 Z M186.257072,274.730824 L186.257072,278.120942 L209.885608,278.120942 L209.885608,274.730824 L186.257072,274.730824 L186.257072,274.730824 Z M166.004041,287.986184 C159.253031,287.986184 145.75101,291.681413 145.75101,298.461648 L145.75101,301.851766 L186.257072,301.851766 L186.257072,298.461648 C186.257072,291.681413 172.755051,287.986184 166.004041,287.986184 L166.004041,287.986184 Z M166.004041,261.170353 C160.411321,261.170353 155.877526,265.723775 155.877526,271.340706 C155.877526,276.957637 160.411321,281.511059 166.004041,281.511059 C171.596761,281.511059 176.130557,276.957637 176.130557,271.340706 C176.130557,265.723775 171.596761,261.170353 166.004041,261.170353 L166.004041,261.170353 Z" id="Shape" fill="#D6D8DA"></path>
    </g>
</svg>