<svg xmlns="http://www.w3.org/2000/svg" viewBox="0 0 30.71 31.03"><defs><style>.cls-1,.cls-2{fill:#f7a800;}.cls-1{stroke:#f7a800;stroke-miterlimit:10;stroke-width:0.71px;}</style></defs><title>Goods</title><g id="Layer_2" data-name="Layer 2"><g id="Capa_1" data-name="Capa 1"><g id="tracking_code" data-name="tracking code"><path class="cls-1" d="M20,4.41,18.13.71A.46.46,0,0,0,17.5.5a.47.47,0,0,0-.22.63l1.83,3.61V7.22l-1.66-.51a.37.37,0,0,0-.29,0l-1.8.64-1.8-.64a.43.43,0,0,0-.29,0l-1.66.51V4.74l1.82-3.61A.47.47,0,0,0,13.23.5a.45.45,0,0,0-.63.21l-1.87,3.7a.45.45,0,0,0-.05.21V7.86a.49.49,0,0,0,.18.37.51.51,0,0,0,.28.1l.14,0,2.12-.66,1.81.65a.52.52,0,0,0,.32,0l1.81-.65,2.1.66a.49.49,0,0,0,.42-.08A.45.45,0,0,0,20,7.86V4.63A.43.43,0,0,0,20,4.41Z"/><path class="cls-1" d="M30.05,4.79A.61.61,0,0,0,30,4.68L25.28,1A2.47,2.47,0,0,0,23.91.36H6.86A2.62,2.62,0,0,0,5.52,1L.77,4.67a.37.37,0,0,0-.1.11,1.73,1.73,0,0,0-.3,1,.51.51,0,0,0,.49.46.48.48,0,0,0,.45-.48.74.74,0,0,1,.1-.43L6.12,1.73a2,2,0,0,1,.74-.44H23.91a2.16,2.16,0,0,1,.78.47l4.63,3.61a.94.94,0,0,1,.1.43.48.48,0,0,0,.45.48h0a.47.47,0,0,0,.47-.46A1.68,1.68,0,0,0,30.05,4.79Z"/><path class="cls-2" d="M17.39,14.42a.46.46,0,0,0-.46.47V20.3a.47.47,0,0,0,.93,0V14.89A.47.47,0,0,0,17.39,14.42Z"/><path class="cls-2" d="M19.4,14.42a.46.46,0,0,0-.46.47V20.3a.47.47,0,0,0,.93,0V14.89A.47.47,0,0,0,19.4,14.42Z"/><path class="cls-2" d="M15.36,14.42a.46.46,0,0,0-.47.47V20.3a.46.46,0,0,0,.47.46.47.47,0,0,0,.48-.46V14.89A.48.48,0,0,0,15.36,14.42Z"/><path class="cls-2" d="M13,14.42a.47.47,0,0,0-.46.47V20.3a.47.47,0,0,0,.94,0V14.89A.48.48,0,0,0,13,14.42Z"/><path class="cls-2" d="M11.14,14.42a.47.47,0,0,0-.46.47V20.3a.47.47,0,0,0,.94,0V14.89A.47.47,0,0,0,11.14,14.42Z"/><path class="cls-1" d="M23.67,18.4A8.22,8.22,0,0,0,16,9.63c-.18,0-.38,0-.59,0A8.21,8.21,0,0,0,14.91,26l.59,0A8.22,8.22,0,0,0,23.67,18.4ZM15.5,25.09H15a7.24,7.24,0,0,1-5-2.48,7.17,7.17,0,0,1-1.77-5.27,7.29,7.29,0,0,1,7.23-6.77,4.32,4.32,0,0,1,.53,0A7.2,7.2,0,0,1,21,13a7.11,7.11,0,0,1,1.77,5.28A7.28,7.28,0,0,1,15.5,25.09Z"/><path class="cls-1" d="M26.49,25.67l-2.73-3.08a9.32,9.32,0,0,1-.51.82l2.53,2.88a2.12,2.12,0,0,1,.51,1.52,2.12,2.12,0,0,1-2.23,1.92A2.07,2.07,0,0,1,22.64,29l-2.5-2.84c-.29.15-.59.29-.89.42l2.69,3a3,3,0,0,0,2.06,1h.23a2.91,2.91,0,0,0,2-.74,3,3,0,0,0,1-2.05A3,3,0,0,0,26.49,25.67Z"/><path class="cls-1" d="M28.48,4.11H2.23A1.88,1.88,0,0,0,.36,6V26.6a1.89,1.89,0,0,0,1.87,1.88H19l-.84-.94H2.23a.94.94,0,0,1-.93-.94V6A1,1,0,0,1,2.23,5H28.48a.94.94,0,0,1,.94.94V26.6a.93.93,0,0,1-.94.94v.94a1.88,1.88,0,0,0,1.87-1.88V6A1.87,1.87,0,0,0,28.48,4.11Z"/></g></g></g></svg>