<svg xmlns="http://www.w3.org/2000/svg" xmlns:xlink="http://www.w3.org/1999/xlink" viewBox="0 0 1906.43 1887.89"><defs><style>.cls-1{fill:#cc2229;}.cls-2{fill:#f57f1f;}.cls-3{fill:#f04e49;}.cls-4{fill:#ffcb07;}.cls-5{fill:#28b34b;}.cls-6{fill:#7cc244;}.cls-7{fill:#d11e25;}.cls-8{fill:#0089ce;}.cls-9{fill:#31b8eb;}.cls-10{fill:#05a84c;}.cls-11{fill:#0060ac;}.cls-12{fill:#e7aa30;}.cls-13{fill:#60b5e1;}.cls-14{fill:#bf442b;}.cls-15{fill:#2d5695;}.cls-16{fill:url(#linear-gradient);}.cls-17{fill:#8d2225;}.cls-18{fill:#ed1b24;}.cls-19{fill:url(#radial-gradient);}.cls-20{fill:#ac252a;}.cls-21{fill:#a3252a;}</style><linearGradient id="linear-gradient" x1="51.88" y1="1109.58" x2="77.32" y2="1080.32" gradientTransform="translate(994.53 -5147.71) scale(5.2)" gradientUnits="userSpaceOnUse"><stop offset="0" stop-color="#424244"/><stop offset="1" stop-color="#131010"/></linearGradient><radialGradient id="radial-gradient" cx="140.9" cy="1053.23" r="52.67" gradientTransform="translate(994.53 -5147.71) scale(5.2)" gradientUnits="userSpaceOnUse"><stop offset="0" stop-color="#fff"/><stop offset="0.15" stop-color="#f2cdc9"/><stop offset="0.29" stop-color="#e8a39c"/><stop offset="0.44" stop-color="#df8176"/><stop offset="0.58" stop-color="#d86659"/><stop offset="0.72" stop-color="#d35245"/><stop offset="0.86" stop-color="#d04738"/><stop offset="1" stop-color="#cf4334"/></radialGradient></defs><title>reddcoin logo2</title><g id="Layer_2" data-name="Layer 2"><g id="Layer_1-2" data-name="Layer 1"><path class="cls-1" d="M1526.86,1629c-352.25,348.08-919.93,344.73-1268-7.54s-344.67-919.94,7.59-1268C694.8-69.82,1385.51,48.77,1671.88,540.24,1760,691.39,1801.36,865,1792,1039.58A893.3,893.3,0,0,1,1526.86,1629Z"/><path class="cls-1" d="M1526.86,1629c-263.8,260.68-648.39,324.22-971.12,191.78L1761.48,753.91c.74,2.68,1.45,5.36,2.17,8.05a899.09,899.09,0,0,1,29.62,234.61q-.19,32.28-2.7,64.48h0q-1.65,21.46-4.35,42.82h0q-1.34,10.69-2.94,21.34h0q-4.79,32-11.91,63.61-2.38,10.54-5,21t-5.53,20.93q-2.87,10.43-6,20.82h0q-3.14,10.39-6.54,20.69h0q-6.81,20.66-14.6,41h0q-3.91,10.18-8.07,20.27h0q-12.52,30.39-27.28,59.79-14.86,29.62-31.89,58.06h0q-5.72,9.53-11.65,18.92t-12.17,18.69q-6.22,9.3-12.67,18.44h0q-6.47,9.18-13.19,18.19h0q-6.73,9.05-13.69,17.92t-14.21,17.67q-7.26,8.77-14.72,17.38h0q-7.51,8.64-15.23,17.08t-15.74,16.8q-8,8.32-16.24,16.44Z"/><path class="cls-2" d="M1526.86,1629a893,893,0,0,1-354.28,215.5L998,100.38c478.49,54.13,819,471.64,794,939.2a900.13,900.13,0,0,1-31.15,191.24,892.51,892.51,0,0,1-234,398.19Z"/><path class="cls-3" d="M1526.86,1629c-263.8,260.68-648.39,324.22-971.12,191.78L1761.48,753.91a900.29,900.29,0,0,1-20.25,539C1695.78,1420.21,1623,1534,1526.86,1629Z"/><path class="cls-4" d="M1526.86,1629a893,893,0,0,1-354.27,215.54l-52.37-523.22,641.27-567.42A895.19,895.19,0,0,1,1526.86,1629Z"/><path class="cls-5" d="M793.28,1881.88a892.76,892.76,0,0,1-534.44-260.42C-39.72,1319.31-79.67,858.61,137.36,514Z"/><path class="cls-6" d="M793.28,1881.88a896.77,896.77,0,0,1-237.5-61.11L702,1691.43Z"/><path class="cls-7" d="M420.68,1751.32a899,899,0,0,1-161.83-129.86c-348.05-352.22-344.68-919.93,7.58-1268C535.9,87.19,931.47,26.6,1258.33,170.52Z"/><path class="cls-8" d="M5.46,892.76a892.92,892.92,0,0,1,261-539.32C535.9,87.19,931.47,26.6,1258.33,170.52l-209.9,396.13L5.46,892.76Z"/><path class="cls-9" d="M998,100.35a895.77,895.77,0,0,1,260.31,70.16l-213,402.07L998,100.35Z"/><path class="cls-10" d="M420.68,1751.32a899,899,0,0,1-161.83-129.86C-39.72,1319.31-79.67,858.61,137.36,514l446,930.22L420.68,1751.32Z"/><path class="cls-11" d="M5.46,892.76A893.44,893.44,0,0,1,137.37,514L278.12,807.51Z"/><path class="cls-12" d="M1594.37,829.34a19.37,19.37,0,0,1-28.13-6.5c-104.82-190.71-258.18-352-442.47-466.9l32.39-73.19c207.78,117.35,396.39,275,505.91,485.94,4.84,9.37-60.35,55.45-67.71,60.65Z"/><path class="cls-13" d="M1150.87,373.31c-18.62-11.61-64.65-40.14-83.88-50.79a19.36,19.36,0,0,1-8.07-25.33l23-48a18.73,18.73,0,0,1,14.81,1.29q30,15.61,59.39,32.22L1165,346.6l-14.15,26.72Z"/><path class="cls-14" d="M1120.75,209.28c230.8,120.24,421.54,310.38,541.42,541.31a19.28,19.28,0,0,1-6,24.75l-58.13,41a19.35,19.35,0,0,1-28.13-6.49c-115.42-210-289.66-384.24-499.24-500.31a19.36,19.36,0,0,1-8.09-25.33l31.78-66.12a19.37,19.37,0,0,1,26.41-8.79Z"/><path class="cls-15" d="M1120.75,209.28a1270.57,1270.57,0,0,1,160.38,99.4L1092.64,322q-10.94-6.35-22-12.49a19.35,19.35,0,0,1-8.09-25.33l31.77-66.12a19.39,19.39,0,0,1,26.42-8.79Z"/><path class="cls-16" d="M1643.68,784.13,1598,816.34a19.35,19.35,0,0,1-28.13-6.49c-115.42-210-289.66-384.24-499.24-500.32a19.35,19.35,0,0,1-8.09-25.33l23.05-48a18.69,18.69,0,0,1,14.81,1.28c230.8,120.24,421.54,310.38,541.42,541.31A20,20,0,0,1,1643.68,784.13Z"/><path class="cls-17" d="M1887,247.6c82.11,243.91-107,490.88-359.5,481.58A1222.77,1222.77,0,0,0,1423,597.51a1280.81,1280.81,0,0,0-247.29-222.89C1159-56.33,1757.24-137.84,1887,247.6Z"/><path class="cls-18" d="M1860,252.91c79.08,234.88-96.5,474.51-335.06,481.63a1278.68,1278.68,0,0,0-376.21-378c8.58-366.14,489.73-480.76,676.09-178.85A366.67,366.67,0,0,1,1860,252.91Z"/><path class="cls-19" d="M1860,252.91c64.36,191.19-38.42,398.31-229.6,462.67a365.85,365.85,0,0,1-85.1,17.79,366.49,366.49,0,0,0,71.88-16.4c191.18-64.37,294-271.49,229.6-462.67A364.88,364.88,0,0,0,1483.36,5.92q-6.93.32-13.85.93,9-1.11,18.05-1.77C1606.52-4,1724.64,48,1799,141c1.86,2.33,3.69,4.67,5.53,7.05A365.49,365.49,0,0,1,1860,252.91Z"/><path class="cls-20" d="M1547,733.22l-1.69.15,1.66-.2ZM1213.12,401.38q-.83-9.05-1.48-18.12,8.94,4.39,17.76,9,.89,11.82,2,22.95Q1222.33,408.23,1213.12,401.38Z"/><path class="cls-21" d="M1148.77,356.57q.23-10.49,1-20.7c184.07,80.12,332.08,221.2,417.64,394.88a360.71,360.71,0,0,1-42.4,3.79,1278.9,1278.9,0,0,0-376.23-378Z"/></g></g></svg>