<?xml version="1.0" encoding="UTF-8" standalone="no"?>
<svg width="57px" height="41px" viewBox="0 0 57 41" version="1.1" xmlns="http://www.w3.org/2000/svg" xmlns:xlink="http://www.w3.org/1999/xlink">
    <!-- Generator: Sketch 48.2 (47327) - http://www.bohemiancoding.com/sketch -->
    <title>Shape</title>
    <desc>Created with Sketch.</desc>
    <defs></defs>
    <g id="ACCOUNT-VERIFICATION" stroke="none" stroke-width="1" fill="none" fill-rule="evenodd" transform="translate(-32.000000, -318.000000)">
        <g id="SELFIE" transform="translate(32.000000, 317.000000)" fill="#F7A800">
            <path d="M20.2025316,1 C25.7813067,1 30.3037975,5.52249075 30.3037975,11.1012658 C30.3037975,16.6800409 25.7813067,21.2025316 20.2025316,21.2025316 C14.6237566,21.2025316 10.1012658,16.6800409 10.1012658,11.1012658 C10.1012658,5.52249075 14.6237566,1 20.2025316,1 L20.2025316,1 Z M20.2025316,26.2531646 C31.3716456,26.2531646 40.4050633,30.7843038 40.4050633,36.3544304 L40.4050633,41.4050633 L0,41.4050633 L0,36.3544304 C0,30.7843038 9.03341772,26.2531646 20.2025316,26.2531646 L20.2025316,26.2531646 Z M43.2911392,23.1073418 L35.3544304,14.4491139 L38.7022785,11.1012658 L43.2911392,15.6901266 L53.6521519,5.32911392 L57,9.39848101 L43.2911392,23.1073418 L43.2911392,23.1073418 Z" id="Shape"></path>
        </g>
    </g>
</svg>