<?xml version="1.0" encoding="UTF-8" standalone="no"?>
<svg width="274px" height="268px" viewBox="0 0 274 268" version="1.1" xmlns="http://www.w3.org/2000/svg" xmlns:xlink="http://www.w3.org/1999/xlink">
    <!-- Generator: Sketch 48.2 (47327) - http://www.bohemiancoding.com/sketch -->
    <title>Selfie id example-01 copia</title>
    <desc>Created with Sketch.</desc>
    <defs>
        <rect id="path-1" x="0" y="0" width="278" height="282"></rect>
    </defs>
    <g id="ACCOUNT-VERIFICATION---SELFIE" stroke="none" stroke-width="1" fill="none" fill-rule="evenodd" transform="translate(-41.000000, -183.000000)">
        <g id="Selfie-id-example-01-copia" transform="translate(41.000000, 169.000000)">
            <mask id="mask-2" fill="white">
                <use xlink:href="#path-1"></use>
            </mask>
            <g id="Mask"></g>
            <g mask="url(#mask-2)" id="Livello_1">
                <g transform="translate(2.000000, 17.000000)">
                    <g>
                        <g id="XMLID_2_" stroke="#D6D8DA" stroke-width="6">
                            <path d="M268.707609,266.570118 L0.292391304,266.570118 L0.292391304,265.699658 C0.292391304,261.782589 3.94728261,216.083457 15.3505435,205.057635 C21.1983696,199.399647 50.1451087,188.954131 71.3434783,181.119994 C77.3375,178.943845 82.4543478,177.057849 85.8168478,175.752159 C100.290217,170.094172 100.290217,165.88695 100.290217,160.954345 L100.290217,144.705765 C95.3195652,139.33793 91.8108696,122.363967 91.0798913,118.446898 C89.7641304,118.446898 88.3021739,118.011668 86.6940217,116.996132 C82.0157609,114.0946 76.0217391,106.550616 73.975,97.700943 C71.1972826,86.0948142 76.0217391,77.1000643 80.9923913,75.0689918 C80.9923913,74.1985321 80.7,72.6026894 80.5538043,70.7166935 C79.8228261,63.4628629 78.3608696,49.8256616 78.3608696,39.3801456 C78.3608696,31.5460086 79.2380435,24.8724846 80.8461957,20.0849564 C82.8929348,14.1368154 86.1092391,11.0902066 90.348913,11.0902066 C99.4130435,11.0902066 105.991848,8.47882757 113.009239,5.72237197 C120.172826,2.96591637 127.628804,0.0643841612 137.8625,0.0643841612 C157.01413,0.0643841612 164.031522,4.41668248 168.417391,11.0902066 C183.183152,11.2352832 190.931522,21.1004927 190.931522,39.5252222 C190.931522,46.0536697 189.761957,57.3696453 188.884783,65.6390121 C188.446196,69.7011572 188.007609,73.6182257 188.007609,74.9239152 C192.978261,76.8099111 197.948913,85.804661 195.171196,97.5558664 C193.124457,106.40554 187.130435,113.949523 182.452174,116.851056 C180.844022,117.866592 179.382065,118.301822 178.066304,118.301822 C177.335326,122.21889 173.82663,139.192854 168.855978,144.560688 L168.855978,160.809269 C168.855978,165.741873 168.855978,169.658942 183.329348,175.607083 C187.422826,177.202926 194.147826,179.669228 201.896196,182.57076 C222.655978,190.114744 248.386413,199.544724 253.795652,204.767482 C265.198913,215.793304 268.853804,261.492436 268.853804,265.409505 L268.853804,266.570118 L268.707609,266.570118 Z" id="XMLID_81_"></path>
                        </g>
                        <g id="XMLID_5_" transform="translate(61.402174, 200.658628)">
                            <path d="M59.0630435,0.934843824 L3.3625,0.934843824 C1.90054348,0.934843824 0.877173913,2.09545671 0.877173913,3.4011462 L0.877173913,37.3490731 C0.877173913,38.7998392 2.04673913,39.8153754 3.3625,39.8153754 L59.0630435,39.8153754 C60.525,39.8153754 61.5483696,38.6547625 61.5483696,37.3490731 L61.5483696,3.4011462 C61.5483696,2.09545671 60.525,0.934843824 59.0630435,0.934843824 L59.0630435,0.934843824 Z M8.04076087,31.1107788 C8.04076087,28.6444764 9.06413043,25.1626378 9.7951087,24.5823313 C10.526087,23.8569483 13.45,22.841412 14.9119565,22.4061822 C15.9353261,21.9709523 15.9353261,21.8258757 15.9353261,21.1004927 L15.9353261,20.230033 C14.1809783,18.7792669 13.1576087,16.3129645 13.1576087,13.9917388 C13.1576087,11.0902066 15.4967391,8.33375096 18.5668478,8.33375096 C21.4907609,8.33375096 23.976087,11.0902066 23.976087,13.9917388 C23.976087,16.3129645 22.9527174,18.9243435 21.1983696,20.230033 L21.1983696,21.1004927 C21.1983696,21.6807991 21.1983696,21.8258757 22.2217391,22.4061822 C23.5375,22.841412 26.461413,23.8569483 27.338587,24.5823313 C28.0695652,25.3077144 29.0929348,28.6444764 29.0929348,31.1107788 L8.04076087,31.1107788 L8.04076087,31.1107788 Z M53.9461957,28.6444764 L33.7711957,28.6444764 L33.7711957,26.178174 L54.0923913,26.178174 L54.0923913,28.6444764 L53.9461957,28.6444764 Z M53.9461957,22.2611056 L33.7711957,22.2611056 L33.7711957,19.7948032 L54.0923913,19.7948032 L54.0923913,22.2611056 L53.9461957,22.2611056 Z M53.9461957,16.0228113 L33.7711957,16.0228113 L33.7711957,13.5565089 L54.0923913,13.5565089 L54.0923913,16.0228113 L53.9461957,16.0228113 Z" id="XMLID_64_" fill="#FFFFFF"></path>
                            <path d="M59.0630435,40.6858351 L3.3625,40.6858351 C1.60815217,40.6858351 0,39.235069 0,37.3490731 L0,3.4011462 C0,1.66022688 1.46195652,0.0643841612 3.3625,0.0643841612 L59.0630435,0.0643841612 C60.8173913,0.0643841612 62.4255435,1.51515027 62.4255435,3.4011462 L62.4255435,37.3490731 C62.2793478,39.235069 60.8173913,40.6858351 59.0630435,40.6858351 L59.0630435,40.6858351 Z M3.3625,1.66022688 C2.33913043,1.66022688 1.60815217,2.38560993 1.60815217,3.4011462 L1.60815217,37.3490731 C1.60815217,38.3646093 2.33913043,39.0899924 3.3625,39.0899924 L59.0630435,39.0899924 C60.086413,39.0899924 60.8173913,38.3646093 60.8173913,37.3490731 L60.8173913,3.4011462 C60.8173913,2.38560993 60.086413,1.66022688 59.0630435,1.66022688 L3.3625,1.66022688 L3.3625,1.66022688 Z M29.6777174,31.8361619 L7.30978261,31.8361619 L7.30978261,31.1107788 C7.30978261,28.6444764 8.18695652,24.8724846 9.35652174,24.0020249 C10.2336957,23.2766418 12.7190217,22.2611056 14.7657609,21.6807991 C14.7657609,21.6807991 15.2043478,21.3906459 15.3505435,21.3906459 L15.3505435,21.2455693 L15.3505435,20.6652628 C13.5961957,19.2144967 12.5728261,16.6031178 12.5728261,13.9917388 C12.5728261,10.5099001 15.3505435,7.60836791 18.7130435,7.60836791 C22.0755435,7.60836791 24.8532609,10.5099001 24.8532609,13.9917388 C24.8532609,16.6031178 23.6836957,19.0694201 22.0755435,20.6652628 L22.0755435,21.2455693 L22.0755435,21.5357225 C22.0755435,21.5357225 22.5141304,21.8258757 22.6603261,21.8258757 C24.5608696,22.4061822 27.0461957,23.4217184 27.9233696,24.1471015 C28.9467391,25.1626378 29.9701087,28.9346296 29.9701087,31.2558554 L29.9701087,31.8361619 L29.6777174,31.8361619 Z M8.91793478,30.3853957 L28.2157609,30.3853957 C28.0695652,28.06417 27.1923913,25.452791 26.7538043,25.1626378 C26.3152174,24.7274079 24.4146739,24.0020249 21.9293478,23.1315652 C20.613587,22.5512588 20.3211957,22.2611056 20.3211957,21.1004927 L20.3211957,19.7948032 L20.613587,19.50465 C22.0755435,18.3440371 23.098913,16.0228113 23.098913,13.8466622 C23.098913,11.2352832 20.9059783,8.9140574 18.4206522,8.9140574 C15.9353261,8.9140574 13.7423913,11.2352832 13.7423913,13.8466622 C13.7423913,16.0228113 14.7657609,18.3440371 16.2277174,19.50465 L16.5201087,19.7948032 L16.5201087,21.1004927 C16.5201087,22.116029 16.2277174,22.4061822 15.0581522,22.9864886 C12.5728261,23.8569483 10.6722826,24.5823313 10.0875,25.0175612 C9.94130435,25.452791 9.06413043,28.06417 8.91793478,30.3853957 L8.91793478,30.3853957 Z M54.8233696,29.3698595 L32.8940217,29.3698595 L32.8940217,25.3077144 L54.6771739,25.3077144 L54.6771739,29.3698595 L54.8233696,29.3698595 Z M34.5021739,27.7740168 L53.2152174,27.7740168 L53.2152174,26.7584805 L34.5021739,26.7584805 L34.5021739,27.7740168 L34.5021739,27.7740168 Z M54.8233696,23.1315652 L32.8940217,23.1315652 L32.8940217,19.0694201 L54.6771739,19.0694201 L54.6771739,23.1315652 L54.8233696,23.1315652 Z M34.5021739,21.5357225 L53.2152174,21.5357225 L53.2152174,20.5201862 L34.5021739,20.5201862 L34.5021739,21.5357225 L34.5021739,21.5357225 Z M54.8233696,16.7481944 L32.8940217,16.7481944 L32.8940217,12.6860493 L54.6771739,12.6860493 L54.6771739,16.7481944 L54.8233696,16.7481944 Z M34.5021739,15.2974283 L53.2152174,15.2974283 L53.2152174,14.281892 L34.5021739,14.281892 L34.5021739,15.2974283 L34.5021739,15.2974283 Z" id="XMLID_70_" fill="#9B9DA0"></path>
                        </g>
                        <g id="XMLID_30_" transform="translate(113.556000, 193.759335)">
                            <rect id="XMLID_60_" fill="#FFFFFF" x="0.768999841" y="1.30568949" width="91.226087" height="60.7870998"></rect>
                            <path d="M92.7260651,62.9632489 L0.0380215799,62.9632489 L0.0380215799,0.580306442 L92.7260651,0.580306442 L92.7260651,62.9632489 L92.7260651,62.9632489 Z M1.4999781,61.3674062 L91.1179129,61.3674062 L91.1179129,2.03107255 L1.4999781,2.03107255 L1.4999781,61.3674062 L1.4999781,61.3674062 Z" id="XMLID_61_" fill="#9B9DA0"></path>
                        </g>
                        <g id="XMLID_31_" transform="translate(123.902307, 203.560160)" fill="#9B9DA0">
                            <polygon id="XMLID_44_" points="0.0716060337 0.0643841612 2.70312777 0.0643841612 2.70312777 9.49436384 7.38138864 9.49436384 7.38138864 11.670513 0.0716060337 11.670513"></polygon>
                            <path d="M9.72051908,11.670513 L6.94280169,0.0643841612 L9.72051908,0.0643841612 L10.597693,4.85191231 C10.8900843,6.1576018 11.0362799,7.75344452 11.3286713,8.9140574 L11.3286713,8.9140574 C11.4748669,7.60836791 11.7672582,6.30267841 12.0596495,4.85191231 L13.0830191,0.0643841612 L15.8607365,0.0643841612 L16.7379104,4.99698892 C17.0303017,6.30267841 17.1764973,7.60836791 17.322693,8.9140574 L17.322693,8.9140574 C17.4688886,7.60836791 17.7612799,6.30267841 18.0536713,4.85191231 L19.0770408,0.0643841612 L21.7085626,0.0643841612 L18.6384539,11.670513 L15.7145408,11.670513 L14.6911713,6.73790824 C14.3987799,5.57729536 14.2525843,4.41668248 14.1063886,3.11099298 L14.1063886,3.11099298 C13.960193,4.41668248 13.6678017,5.57729536 13.3754104,6.73790824 L12.2058452,11.670513 L9.72051908,11.670513 L9.72051908,11.670513 Z" id="XMLID_46_"></path>
                            <polygon id="XMLID_48_" points="23.1705191 0.0643841612 30.334106 0.0643841612 30.334106 2.24053332 25.8020408 2.24053332 25.8020408 4.85191231 30.0417147 4.85191231 30.0417147 7.02806146 25.8020408 7.02806146 25.8020408 11.670513 23.1705191 11.670513 23.1705191 0.0643841612"></polygon>
                            <polygon id="XMLID_50_" points="38.8134539 2.82083976 38.8134539 2.82083976 36.6205191 3.83637603 36.1819321 1.80530349 39.1058452 0.499613993 41.2987799 0.499613993 41.2987799 11.670513 38.8134539 11.670513"></polygon>
                            <path d="M45.0998669,11.670513 L45.0998669,10.0746703 L46.5618234,8.76898079 C49.0471495,6.59283163 50.2167147,5.28714214 50.2167147,3.98145264 C50.2167147,3.11099298 49.6319321,2.38560993 48.3161713,2.38560993 C47.2928017,2.38560993 46.5618234,2.82083976 45.9770408,3.25606959 L45.2460626,1.37007366 C46.1232365,0.789767214 47.4389973,0.209460772 48.9009539,0.209460772 C51.3862799,0.209460772 52.8482365,1.66022688 52.8482365,3.69129942 C52.8482365,5.57729536 51.5324756,7.02806146 49.7781278,8.47882757 L48.7547582,9.34928723 L52.9944321,9.34928723 L52.9944321,11.5254364 L45.0998669,11.5254364 L45.0998669,11.670513 Z" id="XMLID_52_"></path>
                            <path d="M55.1873669,9.20421062 C55.6259539,9.49436384 56.7955191,9.92959367 57.8188886,9.92959367 C59.1346495,9.92959367 59.8656278,9.20421062 59.8656278,8.47882757 C59.8656278,7.31821468 58.6960626,6.88298485 57.5264973,6.88298485 L56.5031278,6.88298485 L56.5031278,4.99698892 L57.5264973,4.99698892 C58.4036713,4.99698892 59.5732365,4.7068357 59.5732365,3.69129942 C59.5732365,2.96591637 58.9884539,2.53068654 57.9650843,2.53068654 C57.0879104,2.53068654 56.0645408,2.96591637 55.6259539,3.25606959 L55.0411713,1.37007366 C55.7721495,0.934843824 57.0879104,0.499613993 58.5498669,0.499613993 C60.8889973,0.499613993 62.3509539,1.80530349 62.3509539,3.25606959 C62.3509539,4.41668248 61.6199756,5.43221875 60.3042147,5.86744858 L60.3042147,5.86744858 C61.6199756,6.1576018 62.7895408,7.17313807 62.7895408,8.62390418 C62.7895408,10.6549767 61.035193,12.1057428 58.1112799,12.1057428 C56.6493234,12.1057428 55.4797582,11.670513 54.7487799,11.3803598 L55.1873669,9.20421062 L55.1873669,9.20421062 Z" id="XMLID_54_"></path>
                            <path d="M68.9297582,11.670513 L68.9297582,9.05913401 L63.959106,9.05913401 L63.959106,7.31821468 L68.1987799,0.499613993 L71.4150843,0.499613993 L71.4150843,7.02806146 L72.7308452,7.02806146 L72.7308452,9.05913401 L71.4150843,9.05913401 L71.4150843,11.670513 L68.9297582,11.670513 L68.9297582,11.670513 Z M68.9297582,7.02806146 L68.9297582,4.56175909 C68.9297582,3.83637603 68.9297582,3.25606959 69.0759539,2.53068654 L69.0759539,2.53068654 C68.7835626,3.25606959 68.3449756,3.83637603 68.0525843,4.56175909 L66.5906278,7.02806146 L66.5906278,7.02806146 L68.9297582,7.02806146 L68.9297582,7.02806146 Z" id="XMLID_56_"></path>
                        </g>
                        <g id="XMLID_39_" transform="translate(153.505435, 230.028487)" fill="#9B9DA0">
                            <path d="M7.30978261,2.61137899 C7.45597826,2.61137899 7.74836957,2.46630238 8.04076087,2.46630238 C8.33315217,2.46630238 8.62554348,2.32122577 8.91793478,2.32122577 L9.94130435,2.32122577 C10.2336957,2.32122577 10.6722826,2.32122577 10.9646739,2.46630238 C11.2570652,2.61137899 11.5494565,2.61137899 11.6956522,2.90153221 C11.8418478,3.04660882 11.9880435,3.33676204 12.1342391,3.62691526 C12.2804348,4.06214509 12.1342391,4.35229831 11.9880435,4.64245154 C11.6956522,4.93260476 11.4032609,5.07768137 11.1108696,5.22275798 C11.1108696,5.22275798 11.1108696,5.22275798 10.9646739,5.22275798 L10.6722826,5.22275798 L10.526087,5.22275798 C10.526087,5.22275798 10.3798913,5.22275798 10.3798913,5.07768137 C10.3798913,4.93260476 10.3798913,4.93260476 10.526087,4.78752815 C10.6722826,4.64245154 10.6722826,4.64245154 10.8184783,4.49737492 C10.9646739,4.35229831 11.1108696,4.35229831 11.1108696,4.2072217 C11.2570652,4.06214509 11.2570652,4.06214509 11.2570652,3.91706848 C11.2570652,3.77199187 11.1108696,3.62691526 10.8184783,3.62691526 C10.526087,3.62691526 10.2336957,3.48183865 9.7951087,3.62691526 C9.35652174,3.77199187 9.06413043,3.62691526 8.62554348,3.77199187 C8.18695652,3.77199187 7.89456522,3.91706848 7.60217391,3.91706848 C7.30978261,3.91706848 7.0173913,4.06214509 6.57880435,4.2072217 C6.14021739,4.35229831 5.70163043,4.49737492 5.26304348,4.64245154 C4.82445652,4.78752815 4.38586957,5.07768137 3.94728261,5.36783459 C3.50869565,5.65798781 3.0701087,5.80306442 2.77771739,6.09321764 C2.48532609,6.38337086 2.19293478,6.67352408 1.90054348,6.9636773 C1.60815217,7.25383052 1.60815217,7.54398374 1.60815217,7.83413697 C1.60815217,7.97921358 1.75434783,8.12429019 2.04673913,8.2693668 C2.33913043,8.41444341 2.63152174,8.41444341 3.0701087,8.55952002 C3.50869565,8.55952002 3.94728261,8.70459663 4.53206522,8.70459663 L6.14021739,8.70459663 L7.74836957,8.70459663 C8.18695652,8.70459663 8.62554348,8.70459663 8.91793478,8.84967324 C9.21032609,8.84967324 9.64891304,8.99474985 9.94130435,8.99474985 C10.3798913,9.13982646 10.6722826,9.13982646 11.1108696,9.42997968 C11.4032609,9.57505629 11.6956522,9.7201329 11.9880435,10.0102861 C12.2804348,10.3004393 12.4266304,10.5905926 12.5728261,10.8807458 C12.7190217,11.170899 12.5728261,11.4610522 12.5728261,11.7512054 C12.4266304,12.0413587 12.2804348,12.1864353 12.1342391,12.4765885 C11.8418478,12.6216651 11.6956522,12.9118183 11.2570652,13.0568949 C10.9646739,13.2019716 10.526087,13.3470482 10.2336957,13.3470482 C9.35652174,13.4921248 8.62554348,13.6372014 7.74836957,13.6372014 C6.87119565,13.6372014 6.14021739,13.6372014 5.26304348,13.4921248 C4.97065217,13.4921248 4.67826087,13.3470482 4.38586957,13.3470482 C4.09347826,13.2019716 3.80108696,13.2019716 3.50869565,13.0568949 C3.21630435,12.9118183 2.92391304,12.7667417 2.77771739,12.4765885 C2.48532609,12.3315119 2.33913043,12.0413587 2.33913043,11.7512054 L2.33913043,11.3159756 C2.33913043,11.170899 2.48532609,11.0258224 2.48532609,10.8807458 C2.63152174,10.7356692 2.77771739,10.5905926 2.92391304,10.445516 C3.0701087,10.3004393 3.21630435,10.3004393 3.50869565,10.1553627 L3.6548913,10.1553627 L3.80108696,10.1553627 C3.80108696,10.1553627 3.94728261,10.1553627 3.94728261,10.3004393 C3.94728261,10.3004393 3.94728261,10.445516 3.80108696,10.445516 C3.6548913,10.5905926 3.50869565,10.7356692 3.3625,10.8807458 C3.21630435,11.0258224 3.21630435,11.0258224 3.0701087,11.170899 C2.92391304,11.3159756 2.92391304,11.3159756 2.92391304,11.4610522 L2.92391304,11.7512054 C2.92391304,11.8962821 3.0701087,12.0413587 3.21630435,12.1864353 C3.3625,12.3315119 3.50869565,12.4765885 3.6548913,12.4765885 C3.80108696,12.6216651 3.94728261,12.6216651 4.09347826,12.6216651 C4.23967391,12.6216651 4.38586957,12.7667417 4.53206522,12.7667417 C5.40923913,12.9118183 6.14021739,13.0568949 7.0173913,13.0568949 C7.89456522,13.0568949 8.77173913,12.9118183 9.64891304,12.7667417 C9.7951087,12.7667417 9.94130435,12.6216651 10.2336957,12.6216651 C10.526087,12.6216651 10.6722826,12.4765885 10.9646739,12.3315119 C11.2570652,12.1864353 11.4032609,12.0413587 11.5494565,11.8962821 C11.6956522,11.7512054 11.6956522,11.6061288 11.6956522,11.3159756 C11.5494565,11.0258224 11.4032609,10.7356692 11.1108696,10.5905926 C10.8184783,10.445516 10.3798913,10.3004393 9.94130435,10.1553627 C9.50271739,10.0102861 8.91793478,10.0102861 8.47934783,10.0102861 C7.89456522,10.0102861 7.45597826,10.0102861 7.16358696,9.86520951 C5.99402174,9.86520951 5.11684783,9.7201329 4.23967391,9.7201329 C3.50869565,9.7201329 2.77771739,9.57505629 2.33913043,9.42997968 C1.75434783,9.28490307 1.46195652,9.13982646 1.16956522,8.99474985 C0.877173913,8.84967324 0.730978261,8.55952002 0.730978261,8.2693668 C0.584782609,7.83413697 0.730978261,7.39890713 0.877173913,6.9636773 C1.02336957,6.52844747 1.31576087,6.09321764 1.75434783,5.80306442 C2.19293478,5.36783459 2.63152174,5.07768137 3.0701087,4.78752815 C3.50869565,4.49737492 4.09347826,4.2072217 4.67826087,3.91706848 C5.26304348,3.62691526 5.70163043,3.48183865 6.28641304,3.33676204 C6.57880435,2.7564556 7.0173913,2.61137899 7.30978261,2.61137899 L7.30978261,2.61137899 Z" id="XMLID_18_"></path>
                            <path d="M14.0347826,5.65798781 L14.0347826,5.94814103 C14.0347826,6.09321764 14.0347826,6.09321764 13.888587,6.23829425 C13.888587,6.38337086 13.7423913,6.38337086 13.5961957,6.52844747 C13.45,6.67352408 13.3038043,6.67352408 13.3038043,6.67352408 C13.011413,6.81860069 12.8652174,6.81860069 12.5728261,6.81860069 C12.2804348,6.81860069 12.1342391,6.67352408 11.9880435,6.52844747 C11.8418478,6.38337086 11.8418478,6.09321764 11.9880435,5.94814103 C12.1342391,5.80306442 12.2804348,5.65798781 12.5728261,5.5129112 C12.8652174,5.36783459 13.1576087,5.36783459 13.3038043,5.36783459 C13.7423913,5.36783459 13.888587,5.5129112 14.0347826,5.65798781 L14.0347826,5.65798781 Z M12.8652174,8.12429019 L12.8652174,7.54398374 C13.011413,7.39890713 13.1576087,7.39890713 13.3038043,7.39890713 C13.45,7.39890713 13.5961957,7.39890713 13.7423913,7.54398374 C13.888587,7.68906036 13.888587,7.68906036 14.0347826,7.97921358 L14.0347826,8.70459663 C14.0347826,8.99474985 14.1809783,9.28490307 14.1809783,9.42997968 C14.1809783,9.7201329 14.3271739,9.86520951 14.3271739,10.0102861 C14.3271739,10.1553627 14.4733696,10.3004393 14.6195652,10.3004393 C14.6195652,10.3004393 14.7657609,10.1553627 14.7657609,10.0102861 C14.7657609,9.86520951 14.9119565,9.57505629 14.9119565,9.42997968 L14.9119565,8.70459663 L14.9119565,8.12429019 C14.9119565,7.97921358 14.9119565,7.97921358 15.0581522,7.83413697 L15.2043478,7.68906036 L15.3505435,7.68906036 C15.3505435,7.68906036 15.4967391,7.83413697 15.4967391,7.97921358 L15.4967391,8.2693668 L15.4967391,8.84967324 C15.4967391,9.13982646 15.4967391,9.28490307 15.3505435,9.57505629 C15.3505435,9.86520951 15.2043478,10.0102861 15.2043478,10.1553627 C15.0581522,10.3004393 15.0581522,10.445516 14.9119565,10.5905926 C14.7657609,10.7356692 14.6195652,10.7356692 14.4733696,10.7356692 C14.1809783,10.7356692 13.888587,10.5905926 13.7423913,10.445516 C13.5961957,10.3004393 13.45,10.0102861 13.3038043,9.7201329 C13.1576087,9.42997968 13.1576087,9.13982646 13.011413,8.84967324 C13.011413,8.84967324 12.8652174,8.55952002 12.8652174,8.12429019 L12.8652174,8.12429019 Z" id="XMLID_20_"></path>
                            <path d="M18.1282609,6.81860069 C18.1282609,7.25383052 18.2744565,7.68906036 18.4206522,8.12429019 C18.5668478,8.55952002 18.5668478,8.84967324 18.7130435,9.13982646 C19.0054348,8.55952002 19.1516304,7.97921358 19.1516304,7.10875391 C19.1516304,6.9636773 19.1516304,6.9636773 19.2978261,6.81860069 C19.2978261,6.81860069 19.4440217,6.67352408 19.4440217,6.81860069 C19.4440217,6.81860069 19.5902174,6.81860069 19.5902174,6.9636773 L19.5902174,7.25383052 C19.5902174,7.83413697 19.4440217,8.41444341 19.2978261,8.84967324 C19.1516304,9.28490307 19.0054348,9.7201329 18.7130435,10.0102861 L18.7130435,10.445516 L18.7130435,11.0258224 C18.7130435,11.6061288 18.5668478,12.0413587 18.2744565,12.3315119 C17.9820652,12.6216651 17.8358696,12.9118183 17.5434783,12.9118183 C17.251087,13.0568949 16.9586957,13.0568949 16.6663043,13.0568949 C16.373913,13.0568949 16.0815217,12.9118183 16.0815217,12.7667417 C15.7891304,12.4765885 15.7891304,12.1864353 15.7891304,11.8962821 C15.7891304,11.6061288 15.9353261,11.3159756 16.2277174,11.170899 C16.373913,10.8807458 16.6663043,10.7356692 16.9586957,10.5905926 C17.251087,10.445516 17.5434783,10.3004393 17.6896739,10.1553627 L17.6896739,9.7201329 C17.6896739,9.86520951 17.5434783,10.0102861 17.3972826,10.1553627 C17.251087,10.3004393 17.1048913,10.3004393 16.9586957,10.445516 C16.5201087,10.5905926 16.2277174,10.445516 15.9353261,10.3004393 C15.6429348,10.1553627 15.4967391,9.86520951 15.3505435,9.57505629 C15.2043478,9.28490307 15.0581522,8.99474985 15.0581522,8.55952002 L15.0581522,7.39890713 C15.0581522,7.10875391 15.2043478,6.67352408 15.3505435,6.52844747 C15.4967391,6.23829425 15.7891304,6.09321764 16.0815217,6.09321764 L16.6663043,6.09321764 C16.9586957,6.23829425 17.1048913,6.38337086 17.251087,6.52844747 C17.3972826,6.52844747 17.3972826,6.52844747 17.5434783,6.38337086 L17.8358696,6.38337086 C17.9820652,6.38337086 17.9820652,6.38337086 18.1282609,6.52844747 C17.9820652,6.52844747 18.1282609,6.67352408 18.1282609,6.81860069 L18.1282609,6.81860069 Z M17.251087,8.99474985 L17.251087,8.2693668 C17.251087,7.97921358 17.1048913,7.68906036 17.1048913,7.54398374 C16.9586957,7.25383052 16.9586957,7.10875391 16.8125,6.9636773 C16.6663043,6.81860069 16.5201087,6.81860069 16.373913,6.81860069 C16.2277174,6.81860069 16.0815217,6.9636773 16.0815217,7.10875391 C16.0815217,7.25383052 15.9353261,7.54398374 15.9353261,7.68906036 L15.9353261,8.41444341 C15.9353261,8.70459663 16.0815217,8.99474985 16.0815217,9.13982646 C16.2277174,9.42997968 16.2277174,9.57505629 16.373913,9.7201329 C16.5201087,9.86520951 16.6663043,9.86520951 16.8125,9.86520951 C16.9586957,9.86520951 16.9586957,9.86520951 16.9586957,9.7201329 L17.1048913,9.57505629 L17.1048913,9.28490307 C17.251087,9.13982646 17.251087,8.99474985 17.251087,8.99474985 L17.251087,8.99474985 Z M17.6896739,10.7356692 C17.3972826,10.8807458 17.1048913,11.0258224 16.9586957,11.3159756 C16.8125,11.4610522 16.6663043,11.7512054 16.6663043,12.0413587 C16.6663043,12.1864353 16.6663043,12.3315119 16.8125,12.3315119 L17.1048913,12.3315119 C17.251087,12.3315119 17.3972826,12.0413587 17.3972826,11.8962821 C17.5434783,11.6061288 17.5434783,11.3159756 17.5434783,11.0258224 L17.6896739,10.7356692 L17.6896739,10.7356692 Z" id="XMLID_23_"></path>
                            <path d="M19.0054348,6.38337086 C19.0054348,6.23829425 19.0054348,5.94814103 19.1516304,5.80306442 C19.2978261,5.65798781 19.4440217,5.5129112 19.5902174,5.5129112 L20.0288043,5.5129112 C20.175,5.5129112 20.175,5.65798781 20.3211957,5.80306442 L20.3211957,6.23829425 L20.3211957,6.81860069 L20.3211957,7.39890713 C20.3211957,7.54398374 20.3211957,7.68906036 20.4673913,7.83413697 C20.4673913,7.54398374 20.4673913,7.25383052 20.613587,7.10875391 C20.613587,6.81860069 20.7597826,6.67352408 20.7597826,6.52844747 C20.7597826,6.38337086 20.9059783,6.23829425 21.0521739,6.23829425 C21.1983696,6.09321764 21.3445652,6.09321764 21.4907609,6.09321764 L21.7831522,6.09321764 C21.9293478,6.09321764 21.9293478,6.23829425 21.9293478,6.38337086 L21.9293478,6.81860069 C21.9293478,6.9636773 21.9293478,7.25383052 22.0755435,7.39890713 C22.0755435,7.54398374 22.2217391,7.68906036 22.2217391,7.83413697 C22.2217391,7.97921358 22.3679348,7.97921358 22.3679348,7.97921358 C22.3679348,7.97921358 22.5141304,7.83413697 22.5141304,7.68906036 C22.5141304,7.54398374 22.6603261,7.39890713 22.6603261,7.25383052 C22.6603261,7.10875391 22.8065217,6.81860069 22.8065217,6.67352408 C22.8065217,6.52844747 22.8065217,6.23829425 22.9527174,6.23829425 C22.9527174,6.09321764 22.9527174,6.09321764 23.098913,6.09321764 C23.098913,6.09321764 23.2451087,6.09321764 23.2451087,5.94814103 L23.3913043,5.94814103 L23.5375,6.09321764 L23.5375,6.67352408 C23.5375,6.9636773 23.3913043,7.25383052 23.3913043,7.54398374 C23.2451087,7.83413697 23.2451087,8.12429019 23.098913,8.2693668 C22.9527174,8.55952002 22.8065217,8.55952002 22.6603261,8.70459663 C22.3679348,8.70459663 22.0755435,8.70459663 21.9293478,8.55952002 C21.7831522,8.41444341 21.6369565,8.2693668 21.4907609,8.12429019 C21.3445652,7.97921358 21.3445652,7.68906036 21.3445652,7.54398374 C21.3445652,7.39890713 21.3445652,7.25383052 21.1983696,7.25383052 C21.1983696,7.25383052 21.0521739,7.39890713 21.0521739,7.54398374 L21.0521739,7.97921358 L21.0521739,8.55952002 L21.0521739,8.99474985 C21.0521739,9.13982646 21.0521739,9.28490307 20.9059783,9.28490307 C20.7597826,9.42997968 20.7597826,9.42997968 20.613587,9.42997968 L20.175,9.42997968 C20.0288043,9.42997968 20.0288043,9.28490307 19.8826087,9.13982646 C19.8826087,8.99474985 19.736413,8.70459663 19.736413,8.55952002 C19.736413,8.2693668 19.5902174,8.12429019 19.4440217,7.83413697 C19.2978261,7.54398374 19.2978261,7.25383052 19.2978261,7.10875391 C19.0054348,6.81860069 19.0054348,6.67352408 19.0054348,6.38337086 L19.0054348,6.38337086 Z" id="XMLID_27_"></path>
                            <path d="M24.2684783,4.35229831 C24.4146739,4.35229831 24.5608696,4.35229831 24.7070652,4.49737492 C24.8532609,4.64245154 24.9994565,4.64245154 24.9994565,4.78752815 C24.9994565,4.64245154 25.1456522,4.64245154 25.2918478,4.49737492 L25.5842391,4.49737492 C25.7304348,4.49737492 25.8766304,4.49737492 25.8766304,4.64245154 C26.0228261,4.78752815 26.0228261,4.78752815 26.0228261,4.93260476 L26.0228261,5.65798781 C26.0228261,5.94814103 26.1690217,6.23829425 26.1690217,6.38337086 C26.1690217,6.67352408 26.3152174,6.81860069 26.3152174,6.9636773 C26.3152174,7.10875391 26.461413,7.25383052 26.6076087,7.25383052 C26.6076087,7.25383052 26.7538043,7.10875391 26.7538043,6.9636773 C26.7538043,6.81860069 26.9,6.52844747 26.9,6.38337086 C26.9,6.09321764 26.9,5.94814103 27.0461957,5.65798781 L27.0461957,5.07768137 C27.0461957,4.93260476 27.0461957,4.93260476 27.1923913,4.78752815 L27.338587,4.64245154 L27.4847826,4.64245154 C27.4847826,4.64245154 27.6309783,4.78752815 27.6309783,4.93260476 L27.6309783,5.22275798 L27.6309783,5.80306442 C27.6309783,6.09321764 27.6309783,6.23829425 27.4847826,6.52844747 C27.4847826,6.81860069 27.338587,6.9636773 27.338587,7.10875391 C27.1923913,7.25383052 27.1923913,7.39890713 27.0461957,7.54398374 C26.9,7.68906036 26.7538043,7.68906036 26.6076087,7.68906036 C26.3152174,7.68906036 26.0228261,7.54398374 25.8766304,7.25383052 C25.8766304,7.54398374 25.7304348,7.68906036 25.7304348,7.97921358 C25.5842391,8.2693668 25.4380435,8.41444341 25.2918478,8.55952002 C25.1456522,8.70459663 24.8532609,8.70459663 24.7070652,8.70459663 C24.4146739,8.70459663 24.1222826,8.55952002 23.8298913,8.2693668 C23.5375,7.97921358 23.3913043,7.68906036 23.2451087,7.39890713 C23.098913,7.10875391 22.9527174,6.67352408 22.9527174,6.23829425 L22.9527174,5.07768137 C23.098913,4.78752815 23.2451087,4.35229831 23.3913043,4.2072217 C23.5375,4.49737492 23.8298913,4.35229831 24.2684783,4.35229831 L24.2684783,4.35229831 Z M24.9994565,5.80306442 C24.9994565,5.65798781 24.8532609,5.5129112 24.7070652,5.36783459 C24.5608696,5.22275798 24.5608696,5.22275798 24.4146739,5.22275798 C24.2684783,5.22275798 24.1222826,5.36783459 23.976087,5.5129112 C23.8298913,5.65798781 23.8298913,5.94814103 23.8298913,6.23829425 L23.8298913,7.10875391 C23.8298913,7.39890713 23.976087,7.68906036 23.976087,7.97921358 C23.976087,8.2693668 24.1222826,8.41444341 24.2684783,8.55952002 C24.4146739,8.70459663 24.5608696,8.84967324 24.7070652,8.84967324 C24.8532609,8.84967324 24.9994565,8.70459663 24.9994565,8.55952002 C24.9994565,8.41444341 25.1456522,8.12429019 25.1456522,7.83413697 L25.1456522,6.9636773 C25.1456522,6.23829425 25.1456522,5.94814103 24.9994565,5.80306442 L24.9994565,5.80306442 Z" id="XMLID_29_"></path>
                            <path d="M26.7538043,2.90153221 L26.7538043,2.7564556 L26.7538043,2.61137899 L26.7538043,2.03107255 C26.9,1.88599594 27.0461957,1.88599594 27.1923913,1.74091933 L27.6309783,1.74091933 C27.7771739,1.74091933 27.7771739,1.88599594 27.9233696,2.03107255 L27.9233696,2.46630238 L28.2157609,2.32122577 L28.6543478,2.32122577 C28.8005435,2.32122577 28.8005435,2.46630238 28.8005435,2.46630238 C28.8005435,2.61137899 28.8005435,2.61137899 28.6543478,2.7564556 C28.5081522,2.90153221 28.5081522,2.90153221 28.3619565,2.90153221 L27.9233696,3.04660882 C27.9233696,3.48183865 28.0695652,3.77199187 28.0695652,4.2072217 C28.2157609,4.64245154 28.2157609,5.07768137 28.3619565,5.5129112 C28.5081522,5.94814103 28.5081522,6.23829425 28.6543478,6.52844747 C28.8005435,6.81860069 28.8005435,6.9636773 28.9467391,6.81860069 C28.9467391,6.81860069 29.0929348,6.67352408 29.0929348,6.52844747 C29.0929348,6.38337086 29.2391304,6.09321764 29.2391304,5.80306442 C29.2391304,5.5129112 29.3853261,5.22275798 29.3853261,5.07768137 L29.3853261,4.64245154 C29.3853261,4.49737492 29.3853261,4.49737492 29.5315217,4.49737492 L29.6777174,4.49737492 L29.823913,4.49737492 L29.9701087,4.64245154 L29.9701087,5.5129112 C29.9701087,5.80306442 29.9701087,6.23829425 29.823913,6.52844747 C29.6777174,6.81860069 29.6777174,7.10875391 29.5315217,7.39890713 C29.3853261,7.68906036 29.0929348,7.83413697 28.8005435,7.97921358 C28.6543478,7.97921358 28.3619565,7.97921358 28.2157609,7.83413697 C28.0695652,7.68906036 27.9233696,7.54398374 27.7771739,7.25383052 C27.6309783,6.9636773 27.4847826,6.81860069 27.4847826,6.38337086 C27.338587,6.09321764 27.338587,5.80306442 27.1923913,5.36783459 C27.0461957,5.07768137 27.0461957,4.64245154 27.0461957,4.35229831 C27.0461957,4.06214509 26.9,3.62691526 26.9,3.33676204 L26.6076087,3.48183865 L26.1690217,3.48183865 C26.0228261,3.48183865 26.0228261,3.33676204 26.0228261,3.33676204 L26.0228261,3.04660882 C26.0228261,2.90153221 26.1690217,2.90153221 26.461413,2.90153221 L26.7538043,2.90153221 L26.7538043,2.90153221 Z" id="XMLID_34_"></path>
                            <path d="M29.0929348,3.77199187 C29.0929348,3.62691526 29.0929348,3.48183865 29.2391304,3.33676204 C29.3853261,3.19168543 29.5315217,3.19168543 29.6777174,3.04660882 L30.1163043,3.04660882 C30.2625,3.04660882 30.2625,3.19168543 30.4086957,3.19168543 C30.4086957,3.48183865 30.5548913,3.91706848 30.5548913,4.2072217 C30.5548913,4.49737492 30.701087,4.93260476 30.701087,5.22275798 C30.701087,5.5129112 30.701087,5.80306442 30.8472826,5.94814103 C30.8472826,6.09321764 30.9934783,6.23829425 30.9934783,6.23829425 C30.9934783,6.23829425 31.1396739,6.23829425 31.1396739,6.09321764 C31.1396739,5.94814103 31.1396739,5.80306442 31.2858696,5.65798781 L31.2858696,5.07768137 L31.2858696,4.49737492 L31.2858696,3.91706848 L31.2858696,3.48183865 C31.2858696,3.33676204 31.2858696,3.19168543 31.4320652,3.19168543 C31.5782609,3.19168543 31.7244565,3.04660882 31.8706522,3.04660882 C32.0168478,3.04660882 32.1630435,3.04660882 32.3092391,3.19168543 C32.4554348,3.19168543 32.4554348,3.33676204 32.4554348,3.48183865 L32.4554348,4.2072217 C32.4554348,4.49737492 32.6016304,4.78752815 32.6016304,5.07768137 C32.6016304,5.36783459 32.7478261,5.5129112 32.7478261,5.65798781 C32.7478261,5.80306442 32.8940217,5.94814103 33.0402174,5.94814103 C33.0402174,5.94814103 33.186413,5.80306442 33.186413,5.65798781 C33.186413,5.5129112 33.3326087,5.22275798 33.3326087,5.07768137 L33.3326087,4.35229831 L33.3326087,3.77199187 C33.3326087,3.62691526 33.3326087,3.62691526 33.4788043,3.48183865 L33.625,3.33676204 L33.7711957,3.33676204 C33.7711957,3.33676204 33.9173913,3.48183865 33.9173913,3.62691526 L33.9173913,4.06214509 C33.9173913,4.35229831 33.9173913,4.49737492 33.7711957,4.78752815 C33.7711957,5.07768137 33.625,5.36783459 33.625,5.65798781 C33.4788043,5.94814103 33.4788043,6.09321764 33.3326087,6.23829425 C33.186413,6.38337086 33.186413,6.38337086 33.0402174,6.38337086 L32.6016304,6.38337086 C32.4554348,6.38337086 32.3092391,6.23829425 32.1630435,6.23829425 C32.0168478,6.09321764 31.8706522,5.94814103 31.8706522,5.80306442 C31.8706522,5.65798781 31.7244565,5.5129112 31.7244565,5.36783459 C31.7244565,5.65798781 31.7244565,5.94814103 31.5782609,6.23829425 C31.5782609,6.52844747 31.4320652,6.81860069 31.2858696,6.9636773 C31.1396739,7.10875391 31.1396739,7.25383052 30.9934783,7.25383052 L30.5548913,7.25383052 C30.4086957,7.25383052 30.2625,7.10875391 30.1163043,7.10875391 C29.9701087,6.9636773 29.823913,6.9636773 29.823913,6.81860069 C29.823913,6.67352408 29.6777174,6.52844747 29.6777174,6.23829425 C29.6777174,5.94814103 29.5315217,5.80306442 29.5315217,5.5129112 C29.5315217,5.22275798 29.3853261,4.93260476 29.3853261,4.64245154 C29.2391304,4.35229831 29.2391304,4.06214509 29.0929348,3.77199187 L29.0929348,3.77199187 Z" id="XMLID_36_"></path>
                            <path d="M33.9173913,3.62691526 C33.9173913,3.77199187 33.9173913,3.77199187 33.7711957,3.77199187 L33.625,3.91706848 L33.4788043,3.91706848 L33.4788043,3.77199187 L33.4788043,3.48183865 C33.3326087,3.48183865 33.3326087,3.33676204 33.186413,3.19168543 L33.186413,2.90153221 C33.186413,2.7564556 33.3326087,2.61137899 33.3326087,2.61137899 C33.4788043,2.46630238 33.4788043,2.46630238 33.625,2.46630238 C33.7711957,2.46630238 33.9173913,2.46630238 34.063587,2.61137899 L34.063587,3.19168543 L34.3559783,3.19168543 C34.5021739,3.19168543 34.6483696,3.04660882 34.7945652,3.04660882 L35.0869565,3.04660882 C35.2331522,3.04660882 35.2331522,3.19168543 35.2331522,3.33676204 L35.2331522,4.06214509 C35.2331522,4.35229831 35.2331522,4.49737492 35.3793478,4.78752815 C35.3793478,5.07768137 35.5255435,5.22275798 35.5255435,5.36783459 C35.5255435,5.5129112 35.6717391,5.65798781 35.8179348,5.5129112 C35.8179348,5.5129112 35.9641304,5.36783459 35.9641304,5.22275798 C35.9641304,5.07768137 36.1103261,4.78752815 36.1103261,4.49737492 C36.1103261,4.2072217 36.2565217,3.91706848 36.2565217,3.77199187 L36.2565217,3.19168543 C36.2565217,3.04660882 36.2565217,3.04660882 36.4027174,2.90153221 L36.548913,2.7564556 L36.6951087,2.7564556 C36.6951087,2.7564556 36.8413043,2.90153221 36.8413043,3.04660882 L36.8413043,3.33676204 L36.8413043,3.91706848 C36.8413043,4.2072217 36.8413043,4.35229831 36.6951087,4.64245154 C36.6951087,4.93260476 36.548913,5.07768137 36.548913,5.36783459 C36.4027174,5.65798781 36.4027174,5.80306442 36.2565217,5.94814103 C36.1103261,6.09321764 35.9641304,6.23829425 35.6717391,6.23829425 C35.3793478,6.23829425 35.2331522,6.23829425 35.0869565,6.09321764 C34.9407609,5.94814103 34.7945652,5.65798781 34.6483696,5.36783459 C34.5021739,5.07768137 34.5021739,4.78752815 34.5021739,4.49737492 L34.5021739,3.62691526 L34.3559783,3.62691526 L34.2097826,3.62691526 C33.9173913,3.62691526 33.7711957,3.62691526 33.9173913,3.62691526 L33.9173913,3.62691526 Z" id="XMLID_38_"></path>
                            <path d="M38.5956522,2.32122577 C38.5956522,2.46630238 38.4494565,2.61137899 38.3032609,2.61137899 C38.1570652,2.7564556 38.0108696,2.7564556 38.0108696,2.90153221 C37.8646739,3.04660882 37.7184783,3.04660882 37.5722826,3.04660882 C37.426087,3.04660882 37.2798913,3.19168543 37.1336957,3.19168543 C37.1336957,3.33676204 37.1336957,3.62691526 37.2798913,3.77199187 C37.2798913,3.91706848 37.426087,4.2072217 37.426087,4.35229831 C37.426087,4.49737492 37.5722826,4.64245154 37.7184783,4.78752815 C37.8646739,4.93260476 37.8646739,4.93260476 38.0108696,4.93260476 C38.1570652,4.93260476 38.3032609,4.93260476 38.4494565,4.78752815 C38.5956522,4.64245154 38.7418478,4.49737492 38.7418478,4.35229831 C38.8880435,4.2072217 38.8880435,3.91706848 39.0342391,3.77199187 C39.1804348,3.48183865 39.1804348,3.33676204 39.1804348,3.04660882 C39.1804348,2.90153221 39.3266304,2.61137899 39.3266304,2.46630238 L39.3266304,2.03107255 C39.3266304,1.88599594 39.3266304,1.88599594 39.4728261,1.88599594 C39.4728261,1.88599594 39.6190217,1.88599594 39.6190217,1.74091933 L39.7652174,1.74091933 L39.911413,1.88599594 L39.911413,2.32122577 L39.911413,2.90153221 C39.911413,3.19168543 39.7652174,3.33676204 39.7652174,3.62691526 C39.6190217,3.91706848 39.6190217,4.2072217 39.4728261,4.35229831 C39.3266304,4.64245154 39.1804348,4.78752815 38.8880435,4.93260476 C38.7418478,5.07768137 38.4494565,5.22275798 38.1570652,5.36783459 C37.8646739,5.5129112 37.426087,5.36783459 37.2798913,5.22275798 C36.9875,5.07768137 36.8413043,4.78752815 36.6951087,4.35229831 C36.548913,4.06214509 36.4027174,3.62691526 36.4027174,3.19168543 C36.4027174,2.7564556 36.2565217,2.32122577 36.4027174,1.88599594 C36.4027174,1.4507661 36.548913,1.16061288 36.6951087,0.870459663 C36.8413043,0.580306442 36.9875,0.435229831 37.2798913,0.290153221 C37.5722826,0.290153221 37.7184783,0.290153221 38.0108696,0.435229831 C38.3032609,0.580306442 38.4494565,0.725383052 38.5956522,0.870459663 C38.7418478,1.01553627 38.8880435,1.30568949 38.8880435,1.4507661 C38.5956522,2.03107255 38.5956522,2.17614916 38.5956522,2.32122577 L38.5956522,2.32122577 Z M37.2798913,1.30568949 C37.2798913,1.30568949 37.1336957,1.4507661 37.1336957,1.74091933 L37.1336957,2.61137899 C37.2798913,2.61137899 37.2798913,2.61137899 37.426087,2.46630238 C37.5722826,2.46630238 37.5722826,2.32122577 37.5722826,2.32122577 L37.5722826,2.03107255 C37.5722826,1.88599594 37.5722826,1.74091933 37.426087,1.74091933 C37.5722826,1.4507661 37.426087,1.30568949 37.2798913,1.30568949 C37.426087,1.16061288 37.2798913,1.16061288 37.2798913,1.30568949 L37.2798913,1.30568949 Z" id="XMLID_41_"></path>
                        </g>
                    </g>
                </g>
            </g>
        </g>
    </g>
</svg>