<svg xmlns="http://www.w3.org/2000/svg" viewBox="0 0 52 52.46"><defs><style>.cls-1{fill:none;stroke:#005da1;stroke-linejoin:round;stroke-width:2px;}.cls-2{fill:#005da1;}</style></defs><title>ICON BOX L</title><g id="Layer_2" data-name="Layer 2"><g id="Capa_1" data-name="Capa 1"><rect class="cls-1" x="1" y="14.4" width="50" height="37.06"/><polygon class="cls-1" points="51 14.4 1 14.4 8.02 1.05 43.98 1.05 51 14.4"/><polygon class="cls-1" points="33.83 14.4 18.17 14.4 18.17 25.78 22.09 24.02 26 25.78 29.91 24.02 33.83 25.78 33.83 14.4"/><polygon class="cls-1" points="33.83 14.4 18.17 14.4 21.68 1 30.32 1 33.83 14.4"/><path class="cls-2" d="M24.11,48V40.53a.1.1,0,0,1,.11-.11h.84a.1.1,0,0,1,.11.11v6.63a0,0,0,0,0,0,0h3.12a.1.1,0,0,1,.11.11V48a.1.1,0,0,1-.11.11H24.22A.1.1,0,0,1,24.11,48Z"/></g></g></svg>