<?xml version="1.0" encoding="UTF-8" standalone="no"?>
<svg width="23px" height="23px" viewBox="0 0 23 23" version="1.1" xmlns="http://www.w3.org/2000/svg" xmlns:xlink="http://www.w3.org/1999/xlink">
    <!-- Generator: Sketch 48.2 (47327) - http://www.bohemiancoding.com/sketch -->
    <title>Group 2</title>
    <desc>Created with Sketch.</desc>
    <defs></defs>
    <g id="ORDER---STATUS" stroke="none" stroke-width="1" fill="none" fill-rule="evenodd" transform="translate(-306.000000, -559.000000)">
        <g id="Order-e-status" transform="translate(-1.000000, 99.000000)">
            <g id="Group-2" transform="translate(308.000000, 461.000000)">
                <g id="Account" transform="translate(4.000000, 3.000000)" fill="#9B9DA0" fill-rule="nonzero">
                    <path d="M6.52928752,9.38040913 C8.50802591,9.38040913 10.1133484,6.30212431 10.1133484,4.06963021 C10.1133484,1.83713611 8.50619544,0 6.52928752,0 C4.55237961,0 2.94705717,1.81746656 2.94705717,4.05979544 C2.94705717,6.30212431 4.55054914,9.38040913 6.52928752,9.38040913 Z M12.8279358,11.7407553 C12.7278351,11.4844914 12.5954106,11.2442387 12.4343847,11.0267506 C11.8925655,10.2576711 10.995635,9.96262785 10.1536187,9.80723839 L8.92537313,9.58890637 C8.26959839,10.2336365 7.4179377,10.5999813 6.52928752,10.6195909 C5.6353834,10.5996055 4.77918736,10.2287923 4.12221909,9.57710464 C3.69388905,9.65578285 3.26372853,9.72856019 2.84088989,9.80723839 C1.99704309,9.96262785 1.10011264,10.2537372 0.556462968,11.0169158 C0.395068809,11.234131 0.262612869,11.4744408 0.162911856,11.7309205 C0.0557029074,12.0460444 0.000569575062,12.3788771 0,12.7143981 L0,13.6329662 C1.77921712,14.4807238 4.02703464,14.9881983 6.46339059,15 L6.53660941,15 C8.97845677,14.9901652 11.2207829,14.4807238 13,13.6329662 L13,12.720299 C12.9971951,12.3828429 12.9389456,12.0485713 12.8279358,11.7328875 L12.8279358,11.7407553 Z" id="Shape"></path>
                </g>
                <circle id="Oval-4" stroke="#979797" cx="10.5" cy="10.5" r="10.5"></circle>
            </g>
        </g>
    </g>
</svg>
