<?xml version="1.0" encoding="UTF-8" standalone="no"?>
<svg
   xmlns:dc="http://purl.org/dc/elements/1.1/"
   xmlns:cc="http://creativecommons.org/ns#"
   xmlns:rdf="http://www.w3.org/1999/02/22-rdf-syntax-ns#"
   xmlns:svg="http://www.w3.org/2000/svg"
   xmlns="http://www.w3.org/2000/svg"
   height="126.19649"
   width="239.24921"
   id="svg64"
   version="1.1"
   viewBox="0 0 239.24921 126.19649">
  <metadata
     id="metadata68">
    <rdf:RDF>
      <cc:Work
         rdf:about="">
        <dc:format>image/svg+xml</dc:format>
        <dc:type
           rdf:resource="http://purl.org/dc/dcmitype/StillImage" />
        <dc:title>Asset 34</dc:title>
      </cc:Work>
    </rdf:RDF>
  </metadata>
  <defs
     id="defs4">
    <style
       id="style2">.cls-1{fill:#f7a800;}.cls-2{fill:#fff;}</style>
  </defs>
  <title
     id="title6">Asset 34</title>
  <g
     transform="translate(-86.700398,-45.731755)"
     data-name="Layer 2"
     id="Layer_2">
    <g
       transform="matrix(0.57978724,0,0,0.57978724,86.700398,45.731755)"
       data-name="Layer 1"
       id="Layer_1-2">
      <path
         style="fill:#f7a800"
         id="path8"
         d="M 216.68,153.28 202.83,96.16 a 1.12,1.12 0 0 0 -2.15,0 l -13.86,57.12 h -12.2 c 0,0 25.31,31 27.17,31 1.86,0 27.17,-31 27.17,-31 z"
         class="cls-1" />
      <g
         data-name="&lt;Group&gt;"
         id="_Group_">
        <path
           style="fill:#ffffff"
           id="path10"
           d="m 315.61,119.58 h 8.21 V 28.31 h -11.16 v -26 h 91.89 a 8.1,8.1 0 0 1 8.1,8.1 v 34.2 H 382.57 V 32.36 H 359.71 V 63.44 H 382 v 21.64 a 6.43,6.43 0 0 1 -6.43,6.43 h -15.9 v 28.07 h -0.09 v 16.72 a 9.34,9.34 0 0 1 -9.34,9.34 h -34.63 z"
           class="cls-2" />
      </g>
      <g
         data-name="&lt;Group&gt;"
         id="_Group_2">
        <path
           style="fill:#ffffff"
           id="path13"
           d="M 5.26,119.53 H 13.6 V 28.25 H 2.28 v -26 h 39.2 a 8,8 0 0 1 8,8 v 20.06 0 81 a 6.23,6.23 0 0 0 6.23,6.23 H 80.37 V 96.47 h 30.07 v 39.78 a 9.34,9.34 0 0 1 -9.34,9.34 H 5.26 Z"
           class="cls-2" />
      </g>
      <path
         style="fill:#ffffff"
         id="path16"
         d="M 172.6,61.28 165,91.91 c -0.8,3.41 -1.2,7.22 -1.81,10.22 l -0.6,4.81 h -0.8 l -0.4,-4.81 A 65.62,65.62 0 0 0 160,91.91 L 145.54,28.35 141.72,10.2 A 10,10 0 0 0 132,2.29 H 98.7 l 3.61,26 h 7.8 v 0.52 l 27.75,110.75 c 1.86,3.56 5.05,6.07 8.72,6.07 h 33.25 L 198.17,78 Z"
         class="cls-2" />
      <path
         style="fill:#ffffff"
         id="path18"
         d="m 231,61.28 7.61,30.63 c 0.8,3.41 1.2,7.22 1.81,10.22 l 0.6,4.81 h 0.8 l 0.4,-4.81 a 65.62,65.62 0 0 1 1.4,-10.22 L 258,28.35 261.82,10.2 a 10,10 0 0 1 9.76,-7.92 h 33.27 l -3.61,26 h -7.8 v 0.52 l -27.73,110.77 c -1.86,3.56 -5.05,6.07 -8.72,6.07 H 223.74 L 205.4,78 Z"
         class="cls-2" />
      <path
         style="fill:#f7a800"
         id="path20"
         d="m 201.68,0 -29,16.77 v 33.54 l 29,19 29,-19 V 16.77 Z m 15.55,19.57 -15.55,9 -15.55,-9 15.55,-9 z m -35.43,8.1 15.29,8.83 V 56.1 L 181.81,45 Z m 24.46,28.42 v -19.6 l 15.29,-8.83 V 45 Z"
         class="cls-1" />
      <path
         style="fill:#ffffff"
         id="path22"
         d="M 0,215 H 2 V 202.8 H 0 v -2.52 h 7.25 v 2.52 H 5.18 v 12 h 5 v -2.64 h 2.69 v 5.16 H 0 Z"
         class="cls-2" />
      <path
         style="fill:#ffffff"
         id="path24"
         d="m 25.63,200 a 8.62,8.62 0 0 1 8.83,8.69 8.835,8.835 0 1 1 -17.67,0 8.62,8.62 0 0 1 8.84,-8.69 z m 0,14.86 c 3.07,0 5.59,-2.64 5.59,-6.17 a 5.72,5.72 0 0 0 -5.59,-5.93 5.72,5.72 0 0 0 -5.63,5.92 c 0,3.53 2.56,6.17 5.63,6.17 z"
         class="cls-2" />
      <path
         style="fill:#ffffff"
         id="path26"
         d="m 47.57,200 c 2.06,0 6.65,0.72 6.65,3.41 v 2.3 h -2.86 v -1.32 c 0,-1.27 -2.23,-1.7 -3.65,-1.7 a 5.54,5.54 0 0 0 -5.71,5.9 c 0,3.82 2.5,6.34 5.86,6.34 1,0 3.7,-0.34 3.7,-1.68 v -1.32 h 2.86 v 2.33 c 0,2.54 -4.37,3.36 -6.75,3.36 a 8.68,8.68 0 0 1 -8.9,-8.88 8.57,8.57 0 0 1 8.8,-8.74 z"
         class="cls-2" />
      <path
         style="fill:#ffffff"
         id="path28"
         d="m 58.2,215 h 1.56 l 5.11,-14.69 h 3.58 L 73.56,215 h 1.56 v 2.35 H 68.71 V 215 h 1.68 l -1.06,-3.19 H 64 L 62.9,215 h 1.68 v 2.35 H 58.2 Z m 10.42,-5.64 -1.62,-4.85 -0.26,-1.06 a 3.3,3.3 0 0 1 0,-0.43 h -0.07 l -0.07,0.43 c -0.07,0.26 -0.12,0.6 -0.24,1.06 l -1.63,4.82 z"
         class="cls-2" />
      <path
         style="fill:#ffffff"
         id="path30"
         d="m 78.91,215 h 2 v -12.2 h -2 v -2.52 h 7.25 v 2.52 H 84.1 v 12 h 5 v -2.64 h 2.69 v 5.16 H 78.91 Z"
         class="cls-2" />
      <path
         style="fill:#ffffff"
         id="path32"
         d="M 103.32,200.28 H 110 v 2.38 h -2 l 2.21,9.72 a 9.28,9.28 0 0 1 0.14,1 v 0.48 h 0.1 l 0.07,-0.48 c 0.07,-0.29 0.1,-0.65 0.19,-1 l 3.19,-12.1 h 2.52 l 3.19,12.1 c 0.1,0.36 0.14,0.72 0.22,1 a 3.55,3.55 0 0 1 0,0.48 h 0.1 v -0.48 a 9.29,9.29 0 0 1 0.14,-1 l 2.21,-9.72 h -2 v -2.38 h 6.65 v 2.38 h -1.43 l -3.62,14.67 h -3.53 l -2.86,-10.75 c -0.1,-0.36 -0.12,-0.72 -0.19,-1 l -0.07,-0.53 h -0.07 a 3.86,3.86 0 0 1 0,0.53 7.16,7.16 0 0 1 -0.22,1 L 112,217.32 h -3.5 l -3.62,-14.67 h -1.56 z"
         class="cls-2" />
      <path
         style="fill:#ffffff"
         id="path34"
         d="m 139.51,200 a 8.62,8.62 0 0 1 8.83,8.69 8.835,8.835 0 1 1 -17.67,0 8.62,8.62 0 0 1 8.84,-8.69 z m 0,14.86 c 3.07,0 5.59,-2.64 5.59,-6.17 a 5.6,5.6 0 1 0 -11.19,0 c 0.01,3.52 2.53,6.16 5.6,6.16 z"
         class="cls-2" />
      <path
         style="fill:#ffffff"
         id="path36"
         d="m 152.83,215 h 2 v -12.34 h -2 v -2.38 h 7.51 a 11.16,11.16 0 0 1 3.24,0.36 4.45,4.45 0 0 1 3.14,4.56 4.65,4.65 0 0 1 -3.22,4.73 v 0 l 0.29,0.22 a 2.76,2.76 0 0 1 0.55,0.67 l 2,3.55 c 0.26,0.46 0.58,0.55 1.15,0.55 H 168 v 2.35 h -2 c -1.39,0 -1.85,-0.29 -2.38,-1.27 l -2.42,-4.39 c -0.36,-0.65 -0.67,-0.86 -1.66,-0.86 H 158 V 215 h 2 v 2.35 h -7.15 z m 8,-6.7 a 2.54,2.54 0 0 0 2.74,-2.81 2.29,2.29 0 0 0 -1.34,-2.35 4.64,4.64 0 0 0 -1.92,-0.31 H 158 v 5.47 z"
         class="cls-2" />
      <path
         style="fill:#ffffff"
         id="path38"
         d="m 172.34,215 h 2 v -12.2 h -2 v -2.52 h 7.25 v 2.52 h -2.06 v 12 h 5 v -2.64 h 2.69 v 5.16 h -12.88 z"
         class="cls-2" />
      <path
         style="fill:#ffffff"
         id="path40"
         d="m 189.34,215 h 2 v -12.34 h -2 v -2.38 h 7.37 a 11.14,11.14 0 0 1 3.55,0.41 c 3.34,1 5.52,3.94 5.52,8.11 0,4.17 -2,6.94 -5.28,8 a 10.94,10.94 0 0 1 -3.77,0.5 h -7.39 z m 7.25,-0.17 a 6.8,6.8 0 0 0 2.79,-0.43 c 1.94,-0.79 3.17,-2.76 3.17,-5.57 0,-2.81 -1.27,-4.85 -3.29,-5.62 a 6.43,6.43 0 0 0 -2.67,-0.38 h -2.06 v 12 z"
         class="cls-2" />
      <path
         style="fill:#ffffff"
         id="path42"
         d="m 218.64,215 h 2 v -12.34 h -2 v -2.38 h 12.17 v 4.42 h -2.69 v -1.75 h -4.3 v 4.9 h 5.54 v 2.52 h -5.54 V 215 h 2.26 v 2.35 h -7.44 z"
         class="cls-2" />
      <path
         style="fill:#ffffff"
         id="path44"
         d="m 243.67,200 a 8.62,8.62 0 0 1 8.83,8.69 8.835,8.835 0 1 1 -17.67,0 8.62,8.62 0 0 1 8.84,-8.69 z m 0,14.86 c 3.07,0 5.59,-2.64 5.59,-6.17 a 5.6,5.6 0 1 0 -11.19,0 c 0.01,3.52 2.53,6.16 5.6,6.16 z"
         class="cls-2" />
      <path
         style="fill:#ffffff"
         id="path46"
         d="m 257,215 h 2 v -12.34 h -2 v -2.38 h 7.51 a 11.16,11.16 0 0 1 3.24,0.36 4.45,4.45 0 0 1 3.14,4.56 4.65,4.65 0 0 1 -3.22,4.73 v 0 l 0.29,0.22 a 2.76,2.76 0 0 1 0.55,0.67 l 2,3.55 c 0.26,0.46 0.58,0.55 1.15,0.55 h 0.55 v 2.35 h -2 c -1.39,0 -1.85,-0.29 -2.38,-1.27 l -2.42,-4.39 c -0.36,-0.65 -0.67,-0.86 -1.66,-0.86 h -1.56 V 215 h 2 v 2.35 H 257 Z m 8,-6.7 a 2.54,2.54 0 0 0 2.74,-2.81 2.29,2.29 0 0 0 -1.34,-2.35 4.64,4.64 0 0 0 -1.92,-0.31 h -2.3 v 5.47 z"
         class="cls-2" />
      <path
         style="fill:#ffffff"
         id="path48"
         d="m 275.28,200.28 h 6.65 v 2.38 h -2 l 2.21,9.72 a 9.29,9.29 0 0 1 0.14,1 v 0.48 h 0.1 l 0.07,-0.48 c 0.07,-0.29 0.1,-0.65 0.19,-1 l 3.19,-12.1 h 2.52 l 3.19,12.1 c 0.1,0.36 0.14,0.72 0.22,1 a 3.55,3.55 0 0 1 0,0.48 h 0.1 v -0.48 a 9.29,9.29 0 0 1 0.14,-1 l 2.21,-9.72 h -2 v -2.38 H 299 v 2.38 h -1.56 l -3.62,14.67 h -3.52 l -2.86,-10.75 c -0.1,-0.36 -0.12,-0.72 -0.19,-1 l -0.07,-0.53 h -0.07 a 3.86,3.86 0 0 1 0,0.53 7.16,7.16 0 0 1 -0.22,1 L 284,217.32 h -3.53 l -3.62,-14.67 h -1.56 z"
         class="cls-2" />
      <path
         style="fill:#ffffff"
         id="path50"
         d="m 300.86,215 h 1.56 l 5.11,-14.69 h 3.58 l 5.11,14.69 h 1.56 v 2.35 h -6.41 V 215 h 1.68 L 312,211.78 h -5.38 l -1.05,3.22 h 1.68 v 2.35 h -6.38 z m 10.42,-5.64 -1.61,-4.82 -0.26,-1.06 a 3.3,3.3 0 0 1 0,-0.43 h -0.07 l -0.07,0.43 c -0.07,0.26 -0.12,0.6 -0.24,1.06 l -1.63,4.82 z"
         class="cls-2" />
      <path
         style="fill:#ffffff"
         id="path52"
         d="m 321.55,215 h 2 v -12.34 h -2 v -2.38 h 7.51 a 11.16,11.16 0 0 1 3.24,0.36 4.45,4.45 0 0 1 3.14,4.56 4.65,4.65 0 0 1 -3.22,4.73 v 0 l 0.29,0.22 a 2.76,2.76 0 0 1 0.55,0.67 l 2,3.55 c 0.26,0.46 0.58,0.55 1.15,0.55 h 0.55 v 2.35 h -2 c -1.39,0 -1.85,-0.29 -2.38,-1.27 L 330,211.66 c -0.36,-0.65 -0.67,-0.86 -1.66,-0.86 h -1.56 v 4.2 h 2 v 2.35 h -7.15 z m 8,-6.7 a 2.54,2.54 0 0 0 2.74,-2.81 2.29,2.29 0 0 0 -1.34,-2.35 4.64,4.64 0 0 0 -1.92,-0.31 h -2.3 v 5.47 z"
         class="cls-2" />
      <path
         style="fill:#ffffff"
         id="path54"
         d="m 341,215 h 2 v -12.34 h -2 v -2.38 h 7.37 a 11.14,11.14 0 0 1 3.55,0.41 c 3.34,1 5.52,3.94 5.52,8.11 0,4.17 -2,6.94 -5.28,8 a 10.94,10.94 0 0 1 -3.77,0.5 H 341 Z m 7.25,-0.17 a 6.8,6.8 0 0 0 2.79,-0.43 c 1.94,-0.79 3.17,-2.76 3.17,-5.57 0,-2.81 -1.21,-4.83 -3.21,-5.64 a 6.43,6.43 0 0 0 -2.67,-0.38 h -2.06 v 12 z"
         class="cls-2" />
      <path
         style="fill:#ffffff"
         id="path56"
         d="m 362.06,215 h 2 v -12.34 h -2 v -2.38 h 12.65 v 4.39 H 372 v -1.87 h -4.78 v 4.68 h 5.62 V 210 h -5.62 v 4.8 h 5.14 v -1.92 h 2.69 v 4.44 h -13 z"
         class="cls-2" />
      <path
         style="fill:#ffffff"
         id="path58"
         d="m 379.7,215 h 2 v -12.34 h -2 v -2.38 h 7.51 a 11.16,11.16 0 0 1 3.24,0.36 4.45,4.45 0 0 1 3.14,4.56 4.65,4.65 0 0 1 -3.22,4.73 v 0 l 0.29,0.22 a 2.76,2.76 0 0 1 0.55,0.67 l 2,3.55 c 0.26,0.46 0.58,0.55 1.15,0.55 h 0.55 v 2.35 h -2 c -1.39,0 -1.85,-0.29 -2.38,-1.27 l -2.42,-4.39 c -0.36,-0.65 -0.67,-0.86 -1.66,-0.86 h -1.56 V 215 h 2 v 2.35 h -7.19 z m 8,-6.7 a 2.54,2.54 0 0 0 2.74,-2.81 2.29,2.29 0 0 0 -1.34,-2.35 4.64,4.64 0 0 0 -1.92,-0.31 h -2.3 v 5.47 z"
         class="cls-2" />
      <path
         style="fill:#ffffff"
         id="path60"
         d="m 401.88,211.83 v 1.27 c 0,1.08 1.39,1.75 3,1.75 1.61,0 3,-0.74 3,-2.11 0,-1.7 -1.94,-2.28 -3.91,-3 -2.28,-0.89 -4.51,-1.87 -4.51,-4.94 0,-3.43 2.76,-4.75 5.71,-4.75 2.69,0 5.4,1 5.4,3 v 2.23 h -2.86 v -1.15 c 0,-0.86 -1.27,-1.32 -2.54,-1.32 -1.27,0 -2.54,0.58 -2.54,1.87 0,1.58 1.61,2.09 3.36,2.78 2.57,0.89 5.09,1.94 5.09,5.11 0,3.48 -2.93,5.09 -6.14,5.09 -2.83,0 -5.86,-1.27 -5.86,-3.84 v -1.94 z"
         class="cls-2" />
    </g>
  </g>
</svg>
